<svg xmlns="http://www.w3.org/2000/svg" viewBox="0 0 566.9 566.9" xmlns:v="https://vecta.io/nano"><g fill="#fff"><path d="M193.3 194.6l-.6-.6.6.6zm-49 86.9c-.1 0-.2-.1-.3-.1.1 0 .2.1.3.1zm50.2-86.3c-.4-.1-.8-.3-1.1-.5.3.2.7.4 1.1.5zm-44.2 137.6c-.2-.1-.5-.1-.8-.2.3.1.6.1.8.2z"/><path d="M151.2 333.1c-.2-.1-.5-.2-.9-.3.4.1.7.2.9.3zm.1.1c.6.3.8.7 1 1.4-.2-.8-.4-1.1-1-1.4zm-1.6-1.8c-.2.4-.4.7-.3 1.2-.1-.5.1-.9.3-1.2zm10.5-18.5h0zm121.6 61.4c0-.2-.1-.3 0-.5v.5c1.1.6 2.3.1 3.5.2-1.1-.1-2.4.3-3.5-.2z"/></g><path d="M484 151.3c-2.4-.3-5 .2-7.9 1.7l9.8 8.9c1.4-1.4 2.3-2.8 2.7-4.3s.3-2.7-.3-3.8c-.7-1.4-2.2-2.2-4.3-2.5zm-119.3-80c.3 1.7 1.2 2.8 2.8 3.5.9.4 1.8.5 2.8.3l.7-.1c1.7-.3 2.9-1.2 3.6-2.8.4-.8.5-1.7.3-2.6l-2.5-13.8c-.3-1.6-1.3-2.8-2.9-3.4-.9-.4-1.8-.5-2.8-.3l-.7.1c-1.8.4-3 1.3-3.6 2.8-.4.8-.5 1.7-.3 2.7l2.6 13.6zm-232 389.9c1.5-1.6 2.2-3.5 2-5.5-.1-2-1-3.8-2.5-5.2-1.4-1.3-2.8-2.1-3.9-2.3-.7-.1-.8.1-.5.8.6 1.1.1 2.6-1.6 4.4l-5.6 6.2c.6.9 1.1 1.6 1.6 2 1.7 1.5 3.5 2.2 5.5 2.1 1.9-.1 3.6-.9 5-2.5zm-12.4 4c-.8-.7-1.8-1.5-3-2.1l-8.4 9.1c-.6.6-1.3 1.1-2.1 1.5.2 1.7.8 3 1.9 4 1.8 1.7 4 2.4 6.4 2.1 2.2-.2 4.1-1.1 5.6-2.7 1.8-2 2.5-4.4 2.1-7.1-.2-1.9-1.1-3.5-2.5-4.8zm50.3-395.6c-1.5-1.3-3-2.1-4.5-2.5s-2.8-.2-3.9.4c-1.5.8-2.3 2.3-2.5 4.3-.3 2.3.4 4.8 2.1 7.5l8.8-9.7zm138.2-28.8c1 .4 2 .7 3 .8 2.6.3 5-.3 7.2-1.8 2.1-1.5 3.4-3.5 3.7-5.9.4-2.8-.3-5.2-2-7.2-1.6-1.8-3.6-2.9-6-3.2-1.9-.2-3.7-.1-5.3.6-.5.2-.5.4-.1.6.8.5 1.2 1.1 1.4 1.7.1.4.1 1.2-.1 2.3l-1.8 12.1zM151.9 486.5c-.3-1.5-.9-2.6-2-3.3-1.4-.9-3-1-4.9-.4-2.2.7-4.2 2.4-6 5l12.4 3.7c.7-1.9.8-3.6.5-5zm140.5 37.2c-1.6.1-3 .9-4.1 2.6-1.3 1.9-1.9 4.4-1.8 7.6l12.2-4.5c-.7-1.8-1.5-3.2-2.7-4.2-1.2-1.1-2.4-1.6-3.6-1.5zm154.4-65c-1.5 0-2.7.4-3.6 1.2-1.2 1.1-1.7 2.7-1.4 4.7.2 2.3 1.4 4.6 3.6 6.9l6.2-11.4c-1.7-.9-3.3-1.3-4.8-1.4zm-239.2 53.1c-1.6-.5-3.1-.2-4.8 1-1.9 1.3-3.4 3.4-4.4 6.4l13 .1c0-1.9-.3-3.6-1-4.9s-1.7-2.2-2.8-2.6zM88.5 153.7l-13.8-3.1 9.6 10.2zm45-52.3c.9 1 2 1.6 3.3 1.6 1.3.1 2.5-.3 3.5-1.2 1.1-.9 1.7-1.9 1.8-3.2.2-1.3-.2-2.4-1.1-3.4l-4.4-5c-.9-1-2-1.6-3.3-1.6-1.3-.1-2.5.3-3.5 1.2-1.1.9-1.7 1.9-1.8 3.2-.2 1.2.2 2.4 1.1 3.4l4.4 5zm298.2 5.6c1.3 0 2.4-.5 3.4-1.5l4.5-4.8c.9-1 1.3-2.1 1.2-3.4s-.7-2.3-1.7-3.2-2.2-1.3-3.5-1.3-2.4.5-3.4 1.5l-4.5 4.8c-.9 1-1.3 2.1-1.2 3.4s.7 2.3 1.7 3.2c1.1.9 2.2 1.3 3.5 1.3zm35.6 18.5c.2-1.5-.1-2.8-.9-3.7-1.1-1.3-2.6-1.9-4.7-1.8-2.4.1-4.9 1.1-7.5 3l11.2 7.2c1.1-1.6 1.7-3.2 1.9-4.7zM143.9 280.6h0c-.1 0-.1 0 0 0-.1 0-.1 0 0 0z"/><path d="M143.9 280.6h0z"/><path d="M143.9 280.6c-.1 0-.1 0 0 0 0 .3 0 .6.2.8-.3-.2-.3-.5-.2-.8zm5.5 52h0zM193.9 196c.2-.2.7-.4.6-.8.1.5-.4.6-.6.8zm-43.5 136.8c-.1 0-.1 0 0 0-.1 0-.1 0 0 0zm.9.4zm8.9-20.3c-.2-.1-.3-.2-.5-.3.2.1.4.2.5.3h0zm33.1-118.3l.1.1c0-.1 0-.1-.1-.1zm70.4 31.2c.1-1.3.1-1.6-.5-1.6.7 0 .6.3.5 1.6z"/><path d="M441.1 339.7c-1.3-1.8-1.6-3.9-2.6-5.8-.6-1.1-1.2-2-2.3-2.7-.8-.5-1.5-1.1-2.3-1.7-.7-.5-1.3-1.2-1.3-1.9 0-1.7-1.2-2.3-2.5-2.8-1.9-.8-3.8-1.6-5.4-3-1.8-1.6-4.1-1.6-6.3-1.4-1.7.2-3.1.2-4.6-.7-.9-.5-1.8-.9-2.1.6-.2.6-.8.7-1.4.7-1 0-2.1.1-3-.6-1.1-.8-1.9-.6-2.7.3-1 1.2-2.3 1.4-3.7 1-1-.3-1.8 0-2.8.1-1.9.3-3.7 1.2-5.8.7-1.3-.3-3-.2-4.3.4-1.6.8-3.2.9-4.9 1-6.8.1-13.2-1.4-19.2-4.4-1.6-.8-3.1-1.6-4.7-2.3-1.3-.6-2.1-1.5-2.9-2.7-1.3-1.9-1.9-4-3.1-5.9-.4-.7-.1-.9.3-1.4.6-.8 1.8-1.3 2-2.7-1.8.4-3.6 0-5 1.4-.4.4-1.1.6-1.6.3-1.1-.8-2.1-.3-3.2-.1-1.4.3-2.8.2-4.2.8-1.1.5-1.5.1-1.6-1.3-.1-.9-.7-1-1.2-1.3-1.7-1-2.7-2.4-3.5-4.1-.4-1-.4-1.9.5-2.6.3-.3.6-.5.8-.8.8-1.1.5-1.7-.9-2-.5-.1-.9 0-1.4.2-.7.4-1.5.4-2.1.1-1.5-.7-2.6-.2-3.7.7-1.3 1-2.7 1.4-4.4 1-2.1-.5-4.3-1.1-6.5-1.1s-4.7-1.5-5.4-3.6c-.4-.9-.7-1.8-1.9-1.8-.8 0-1.1-.5-1.4-1.1-.7-1.2-1.1-2.6-2.9-2.8-.9-2-2.4-1.5-3.9-1-.1 0-.2-.2-.4-.4.7-1.3 1.6-2.6 1.4-4.2-.3-1.9-.4-3.8.9-5.4.2-.3.4-.5.2-.9-.9-1.5 1.3-3.1-.3-4.6.8-1 .4-2.3.8-3.4.6-2 .2-2.5-1.8-2-.3.1-.6.4-.8.1-.7-1-1.7-1-2.8-1.1-.4-.1-.7-.4-.7-.9.3-1.4-.8-2-1.6-2.3-1.6-.7-2.8-2.3-4.6-2.4 0-1.2 1.2-1.1 1.5-1.8-.3-.9-1.5-.4-1.9-1.3-.5-1.1-1.4-1-2.1-.3-.8.8-1.3.3-1.9-.4 1.4 0 2.4-1 3.8-.8.5.1 1.1-.3.9-.8-.5-1.3.2-3-.4-3.9-.9-1.4-.6-2.8-.7-4.2-.1-1-.8-2-.1-3.1.1-.1-.1-.5-.2-.7-.9-.9-1-2.2-1.5-3.2-.5-.9-.6-2.1-1.8-2.7-.7-.3-.5-1.1-.4-1.7.3-1.2.2-2.5.1-3.7 0-1.3-1.1-3.2.9-4.3.4-.2.1-.8.1-1.3-.2-1.9-1.3-3.5-2.1-5.1-.6-1.2-1.4-1.5-2.5-.7-.7.5-1.2.7-2.1.7-1.1 0-1.4.8-.9 1.8.3.6 1.2.9 1.2 1.9-1.1.4-2.2.5-3.4.7-1.1.2-2.1 1.3-3.2 0-.9.9-1.7.3-2.6 0-.8-.2-1.6-.9-2.1.5-.2.5-.8.2-1.3.2-2-.1-4-.1-5.3 1.8-.2.2-.4.7-.9.3.7 1-.5 1.5-.7 2.7-.6-1.5.2-2 .7-2.7v-.1h.1c.1-1.3.1-1.6-.5-1.6-.2 0-.5 0-.9.1-.3 0-.6-.1-.9-.2-1.3-.6-2.3-1.4-2-3.1.1-.8-.6-1.1-1-.7-1 1.2-2.1.7-2.9.2-1.4-.7-2.9-1.2-4.4-1.7-1.4-.5-3 1.1-4-.8h-.2c-.5 1.3-1.7.1-2.4.6-.8.5-1.4.5-1.3-.7 0-.5-.2-.8-.7-.8-.4-.1-.8.1-1 .5-.3.5-.3 1.3-1 1.8-1.5-1.8-3.2-.9-4.8.2-.2-1.2 1.1-1.6.7-2.7-.5-.1-1-.4-1.5-.5-2.5-.1-4.4-1.1-5.7-3.3-.3-.5-.8-.7-1.2-1.1-1.1-.8-1.7-2.4-1.3-3.8.2-.9.1-1.9-.9-1.8-1.6.1-2.7-.9-3.7-1.7-.8-.6-2.2-1.4-1.4-3.1.4-.8-.2-1.2-1.1-.8-.6.2-1 .3-1.6.2-1.5-.3-2.5.4-3.2 1.6-.7-.3-.5-1.5-1.5-1.5-.5.4-.3 1-.5 1.5-.5 1.2-1.2 1.3-2.2.3-.2-.2-.4-.5-.4-.8-.1-1.2-1-1.7-1.9-2.2-1-.5-2.3-1.5-3.2-.9-1.8 1.2-2.1-1-3.3-.9-.2 0-.5.1-.6.3-.7.8-1.4.2-2.2.1-.7-.1-1.3-.7-2-.7-1 .1-.4 1.2-.9 1.8 0 .1-.1.2-.1.2-1.5.9-2.1 2.6-3.3 3.8-.5.4-.9.9-1 1.6-.3 2.6-.8 5.3 1.5 7.4.4.4.7.9 1 1.4.2.3.5.8.3 1.1-1 1.5-1 3.1-.9 4.8-1.1-.8-1.8-1.8-1.5-3.2.3-1.7-.1-3.1-1.1-4.5-.4-.6-.8-1.2-1.1-1.8-.4-.7-.5-1.8-.2-2.4s.1-1.3.1-1.9c.1-.9-1-2.4 1.1-2.5.1 0 .2-.3.2-.4.6-2.4 3.3-3.9 3-6.8 0-.1 0-.2.1-.2.2-.2.7-.4.6-.8-.4-.1-.8-.3-1.1-.5l-.7-.7c-.3-.5-.3-1.1.1-1.6.9-1.1.7-2.4 1.1-3.6.4-1.1-.2-2.1-1.1-2.7-.7-.5-1.7-1.2-2.6-.6-1.1.7-2.4.9-3.5 1.5-1.4.8-3.3.7-4.2 2.4-.4-.5-.6-1.2-.9-1.3-1.6-.2-2.8-1.2-4.1-1.9-.8-.4-1.6-.5-2.2.1-.6.5-1 .5-1.7.1-1.8-1.1-4 .2-5.9-.9-.1-.1-.4.2-.6.3-.4.3-.8.3-1.1 0-.3-.4-.1-.7.3-.9.8-.5 1.1-1-.1-1.4-.3-.1-.3-.4-.3-.8-.1-2.3-.7-3.2-2.6-3.6-1.5-.3-2.6-1.1-3.9-1.6-1.8-.6-1.9-1.8-1.6-3.3.1-.5.4-.9-.1-1.3-1-.6-1.4-1.7-2.1-2.5-2.7-3.3-2.7-3.4-6.9-2.1-.3.1-.8.3-.8 0-.1-1.5-1.6-.4-2.1-1 0-.6.3-.9.5-1.2.4-.5 1.1-.8.6-1.6-.4-.6-1-.8-1.7-.4-.8.4-1.4-.2-2.1-.3-.8 0-1.1-1.5-2.2-.8-1.1.6-.2 1.6-.7 2.4-.9 1.3-.1 2.1 1 2.6.8.4 1.3.8 1.3 1.7 0 .2.1.6.2.6 1.5.6 1.9 2.7 3.9 2.8-.7 1.2-1.9 2.1-1.3 3.4.4.8.1 1.1-.5 1.6-.9.7-.5 1.4.3 1.5 1.9.1 1.9 1.4 2.3 2.6-.6.5-1 .1-1.5 0-.7-.2-1.3.2-1.4.9-.1.8.4 1.2 1.1 1.3.4.1.8 0 1.2.1.3.1.5.6.2.8-1.6 1-2.3 3.4-4.7 3.4-.5 0-1.1.3-1.4.9-.6 1.4 0 3.1-1 4.4 0 0 0 .2.1.2.6 1.2 2.1 1.1 2.9 2 .4.4.9 0 1.3-.3.6-.4 1.2-.5 1.5.4.5 1.9 1.7 3.2 3.5 4 .9.4 1.4 1 1.5 2 0 .6-.4 1.3-.9 1.1-1-.5-2.1.2-3-.4-1.3-1-3.1-.8-4.4-1.7-.5-.3-.8-.1-1.2.3-1.2 1-1.7 2.3-1.8 3.8-.1.5-.3.7-.8.5-.4-.2-.7-.4-.4-.9.3-.7.6-1.5.9-2.2 1-2.1.9-2.7-1.4-3.5-.8-.3-1.6-1.3-2.4-.8-1 .7-1.6.7-2.4-.2-.6-.7-1.4-.7-2.1 0-.9.9-.7 1.6.5 2.2-1.1.5-1.7 1-2.9.7-1-.3-1.8.7-2.7 1.2-.3.2-.2.6 0 .9.4.5.8.9 1.4.7 1.4-.3 2.2 1.2 3.5 1.2.2 0 1.7.7 1 2.1-.3.5.6 1 1.3 1.1.8.1 1.7-.1 2.4.7-.4.1-.5.2-.7.2-1-.1-2 0-2.8-.3-2-.8-1.7 2.1-3.3 2-.4 0-.7.8-.8 1.4v.5c.5 1.4.5 2.9.6 4.3 0 .7.3 1.1 1 1 1.2-.1.7.6.4 1-.5.5-1.6.6-1.4 1.7.1.8-.2 1.1-1 1.2-.5 0-1 .4-1.5.7-.3.2-.4.7-.3.8 1.6.5.6 3.1 2.7 3.2.4 0 .4.4.3.7-.5 1.1-.3 1.8.8 2.6.6.4.8 1.4 1.4 2.1s.2 1.7-.8 2c-1.3.4-2.3 1.3-3.7 1.5-1 .1-1 1.2-.1 1.8.4.3.9.4 1.3.1.9-.4 1.8-.2 3.2-.1-1.2 1.1-2 1.9-3.2 2.2-.8.2-.7.8-1 1.3-.7 1.3 1.3 1.6.8 2.8-.4 0-.9.1-1.4.1-.6 0-1.1.1-1.3.8-.3.7-.1 1.3.5 1.7 1 .7 1.7 2.1 3.3 1.2.2-.1.6-.1.6 0 .5 1 .9.5 1.4 0 .3-.3.6-.8 1.2-.5.3 1.1-1.3 1.3-1.3 2.4 1.4.7 2.2-.9 3.3-1 1 .8.8 1.9 1.1 2.9.3 1.3.5 1.3 1.8.9.9-.3 1.6-1.1 2.7-.6-.1.8-1.6.7-1.4 1.7.5 2-.5 3-2.2 3.8-2.2 1-2.4 2-1.5 4.2.3.7.9 1.4 1.1 2.1.3 1.1.7 1.8 1.7 2.2.6.2.6.7.5 1.4-.5 2.7 1.2 5.1 3.9 5.3.4 0 .9-.2.8.4 0 .5.2 1.5-.6 1.3-1.6-.3-1.5 1.1-2.2 1.7-.8.6-.9 1.2-.1 2 .6.5 1.2 1.1.4 2-.4.4 0 .9.4 1.2.8.6 1.5.7 2.5.3.5-.2.9-1.1 1.7-.6-.5-.6-.1-.8.4-1 .2-.1.3.1.2.2-.2.3-.5.5-.7.8l.1.1h-.1c0 .3 0 .6.2.8.1.1.2.1.3.1 1 .1 1.4.6 1 1.6-.1.4 0 .8 0 1.2 0 .8.1 1.5 1.2 1.2.4-.1.8-.3 1 .2.3.6-.2.8-.6 1.1-.5.3-1 .8-.4 1.3.7.8.7 1.5.3 2.4-.2.5.1.9.5 1.2.7.5 1.5.9 2.5.6.5-.2 1.1-.4 1.5.1.7.9 1.2.4 1.7-.3.4-.7.7-1.5 2.2-1.6-1.5 1.3-1.8 2.5-.1 3.4.3.2.3.6 0 .8-1.1 1.1-.3 1.5.7 1.7.9.2 1.8.7 2.8.3.8-.2 1.5 0 1.4 1.1-.1 1 .3 1.3 1.3 1.1.5-.1.9.2 1.3.5.9.7 1.6.5 2.2-.4.3-.4.4-.9 1.1-.8.2.6.9 1.5.7 1.9-.8 1.3-.2 2.4.1 3.6.1.6 0 1.2-.8 1.2-1.6 0-2.7 1.3-4.1 1.7-1 .3-1.5 1.3-1.5 2.3 0 1.2-.2 2.4.5 3.5 1.3.5 1.5 1.8 1.8 2.9-.8-.2-1.2-.8-1.6-1.4-.2-.4-.4-.8-.7-1.1-.2-.1-.3-.2-.5-.3s-.3-.2-.5-.3c-2.4-1.4-4.9-.1-5.6 2.6-.3 1.1.5 1.9.4 2.6-.2 1.6-.1 3.2.1 4.8-.7-.2-.8-.7-1.2-1.1a.94.94 0 0 0-1.3-.1c-.4.3-.5.8-.1 1.2.3.4.7.8.5 1.5-1.2.1-2.2-.4-2.5-1.4-.4-1.6-1.5-1.5-2.6-1.4s-1.4.5-1 1.6c.3.7.4 1.6.6 2.3.6 1.9.5 4.4 3 5.2.5.2.5.6.3 1a.76.76 0 0 1-.2.4c-.2.4-.4.7-.3 1.2h.1c.3.1.5.1.8.2h.1c.4.1.6.2.9.3h.1c.6.3.8.7 1 1.4.1.4.1 1 .2 1.7.1 1.1.8 1.7 1.3 2.5.2.4.7.4 1.1.1.9-.6 2.1-.6 2.9-1.6.4-.5 1.1-.8 2-.8-.6.7-1.1 1.2-1.5 1.8-.6.9-.1 1.7.9 1.5 1.2-.2 2.4-.1 3.5.2-.6 1.4-.6 1.4-1.8 1.7-.5.1-1 .4-1.6.5-1.1.3-.8 1-.3 1.4.6.6 1.4 1.1 2.2 1.4 1.4.5 1.5 1.3 1 2.4-.8-.1-1.6-.8-2.4-.1.4 1.3 1.6 1.4 2.6 1.8 0 .9-.8 1.3-.9 2-.1.5.2 1.3.6 1 1.6-1 2.1.4 2.9 1.1.7.7 1.5 1.1 2.4 1.5 1.9.7 3.3.4 3.9-1.3.4-1.1.9-1.1 1.7-1 1.4.1 2.6-.1 3.8-1 1-.7 2.2-1 3.7-1.6-.9 1.8-1.2 3.3-2.5 4.2-.4.3-.8.6-.6 1.2.5 1.5 2.5 2.6 4.1 2.6 1.3 0 2.3 1.5 3.7.8 0 .1.1.3.1.4-.1.6.2.9.6 1.2.3.3.5.7.3 1.1-.2.5-.7.2-1 .1-1.4-.1-1.8 1.1-2.4 1.9-.6.9 0 1.8.8 2.2 1.1.6 1.9 1.6 3.4 1.6.8 0 1.6.3 1.8 1.3-.3.5-.8.5-1.2.6-.5.1-1.3.1-1.3.8-.1.8.7 1.6 1.2 1.5 1.5-.3 3 1.2 4.4-.1.1.2.2.3.2.3-.5 1.1.1 1.9 1 2.3 1 .5 1.1-.6 1.5-1.1.1-.1.2-.3.3-.4 1.4-1.8 1.4-1.8 3.3-.7 1 .6 1.7.5 2-.7.5-1.7 2.4-1.1 3.3-2.2.8.8 2.2.6 2.9 1.4 1.5 1.5 3.4 1.2 5.2 1.3 1 0 1.5-.9 1-1.7-.9-1.2-1-2.7-1.8-4 .9-.2 1.4-.7 1.9-1.5.9-1.5 2.3-2.6 3.1-4.2.3-.6 1-.9 1.5-1.1 1.9-.5 3.6-1.1 5.1-2.5.2-.2.6-.2.9 0 .4.3.3.7.1 1.1-.5.7-1.3 1.2-2.1 1.5-2 .6-2.9 2.1-3.5 3.9-.4 1.1-.3 1.9.9 2.3.7.2 1.1.5 1.3 1.3.3 1.2 1.2 1.7 2.4 2.1 1.3.4 2.8.7 3.7 1.5 1.2 1.1 2.3 1.2 3.7 1 1.6-.2 3.2-.5 4.7-1.4s3.1-1.9 5-1.5c.4.1.9-.1 1.4-.2 1.9-.5 3.7-.8 5.6-.3.7.2 1.4 0 1.5-.7.3-2 .5-4 .7-5.9 0-.3-.2-.6-.4-.9-.2-.5-.7-.9-.3-1.6 1.9 0 3.8-.1 4.6 2 2.7-1.5 4.9-3.1 5.8-6.1.3-1 1.6-1.4 2.1-1.1 1.1.8 2.7.8 3.5 2.1.7 1.2 2 1.2 3.1 1.5.8.2 1.8.6 2.5-.6.4-.7 1.2 0 1 .6-.3 1.1.5 1.9.6 2.7-.5.6-1.1-.1-1.4.5 0 .6.5.8.8 1.1.7.8 2 .5 2.6 1.6.5 1 1.1 1.2 1.9.1.4-.6 1.2-.4 1.7 0 .7.5.2 1-.2 1.3-.4.4-.5.8-.2 1.3s.8.8 1.4.7c.9-.2 1.8-.6 2.7-.8.3-.1.7-.2.9.1.3.3.3.7.1 1.1-.1.2-.3.4-.5.5-1 1.2-1.1 1.3.2 2.1 1.1.7 1.1 1.9 1.5 2.9.3.6-.7.9-1.1 1.4 0 .1-.1.1-.1.2v.5c1.1.6 2.3.1 3.5.2.4 0 .8.1 1.1.3.4.2.8.3 1.1-.1.4-.4.3-.9-.1-1.3-.2-.3-.5-.6-.3-1.2l2.7-.3c.5-.1.7-.7 1.1-.8.6-.2.3.8.9 1 .4.1.8.1 1.2-.1s.8-.5 1.2-.7c1.6-.8 2.3-.6 3.2 1 .3.5.6 1.1 1.1 1.1 1.9 0 3.5.5 4.3 2.4 0 .1.3.2.4.2 2.3.5 3.8 2.4 5.8 3.4 1.5.8 3.1.7 4-.8.3-.4 0-1.2.8-1.3.9.9-.2 1.6-.2 2.4.1 1 1.6.7 1.6 1.8-.4.4-1 .5-1.5.7-1.6.7-3.2 1.5-4.7 2.3-.6.3-.8.8-.5 1.4s.7.6 1.1.2c.5-.4.8 0 1.2.4 1.1 1.3 3 1.4 4 .2.9-1.2 2.2-1.8 3.4-2.6.8-.6 1.3-.7 1.8.4.2.5 1 1.3 1.5.6 1.3-1.8 3.2-1.2 4.8-1.8.2.3.3.4.3.6.8 1.8.7 1.8 2.4.7.3-.2.6-.3.9-.4 1.9-.4 3-1.8 3.9-3.3.5-.8 1.4-1.7 1.9-1.6 1.8.4 3.2-2.2 5-.6.1.1.5-.1.6-.3.8-.8 1.5-.3 2.1.1.9.6 0 1.1-.2 1.6-.4 1.2 0 1.8 1.3 1.7 1.1-.1 1.8.1 2.1 1.4.1.8.7 1.5 1.5.9 1.4-1.2 3.5-.8 4.8-2.4.2 2.4.5 2.7 2.6 2.4.3 0 .6-.1.9-.2 1.9-.2 3.4.1 4.6 1.9.4.6 1.1.9 1.2 1.9.1.7.5 1.5 1.2 2 .9.6 1.7-.2 2.5-.2 1 0 .6 1.8 1.7 1.7 1.7-.3 2.6.5 3.6 1.7.5.7 1.6 1 2.5 1.2.7.2.8-.9 1.2-1.3.3-.2.7-.3.9 0 .6.8 1 1.7 2.1.5.2-.2.5 0 .6.2.3 1.2 1.1 1.4 2.2 1.1.2 0 .3.2.5.4.7 1.2.6 1.7-.8 2.5-1.2.7-1.9 1.8-2.5 2.8-.5.9 1.1 1.1 1.1 2.1 0 .2.2.4.2.7.1.3.5.5.8.4 2-.5 3.1.7 4.1 2 .4-.3.8-.7 1.2-.9 1.6-.7 2.9-1.9 4.1-3.1 1.5-1.4 3.1-3 3.5-5.3.2-1 .9-1.5 1.6-2.2 1.5-1.5 3.3-1.6 5.1-1.7 1.5-.1 2.9-.1 3.7-1.5.2-.3.7-.4 1.1-.5 1.4-.3 2.3-.7 3.2-1.6.3-.3.6-.8 1.2-.7 1.4.1 2.1-1 2.9-1.8.7-.7.7-1.5-.2-2-.7-.4-1.1-1.1-2-1.2-.4 0-.8-.6-.5-.9 1.2-1.1.6-2.7 1.1-4 .8-2.1.6-4.4 1.2-6.6.8.5 1.7.9 2.2-.4.2-.5.7-.5 1.2-.6s.8-.3 1.1-.8c1-2.1 2.8-2.9 5.1-2.8 1.7.1 2.4-.8 1.8-2.4-.3-.8-.2-1.2.2-1.9.5-.9.8-1.9 1-2.9.2-.7.3-1.1 1.2-1.2 1.3-.2 1.7-1.1 1.4-2.4-.2-.8-.6-1.5-1.1-2.1-1-1.2.4-2.8-.6-4.1-.1-.2.3-.6.6-.5 1.1.1.9-.6.8-1.2-.3-1.3.1-2.3 1.5-2.8 1.1-.4 1.5-1.2.6-2.2-.5-.5-.4-.8 0-1.2s.9-.5 1.3-.1c1 1 1.8.7 2.7-.1.4-.4.9-.5 1.3-.1.9.7 2 .5 2.9.9.8.3 1.3.6 2-.2.5-.5 1.6-.2 1.8-1.2.2-.8 1.2-1 .7-1.7zm-113.7-18c-1 .9-1.3 1.9-1.1 3.2.5 3.1-1.9 5-4.7 5.6-2.2.5-3.6-.6-4.1-2.8-.3-1.4-2.3-2.8-4.3-2.8-1.5 0-3 .1-4.5.3-2.7.5-5.4 1.1-8.1 1.8-.6.1-1.1.6-1.7.9-2.8 1.6-5.7 3.3-8.8 4.2-1.5.5-2.9.9-4.6.5-2.7-.6-4.4-2.5-5.8-4.6-.9-1.2-.5-2.9.7-4.2.2-.2.3-.4.4-.6.2-.7 1.4-.9 1.2-1.7s-.9-1.6-1.7-1.9c-2.7-1.2-4.7-3.5-7.7-4-.6-.1-1.3-.4-1.7-.9-.7-.8-1.5-1.2-2.4-1.5-1.9-.6-3.6-1.6-5.3-2.6-2.9-1.9-6.1-3-9.3-4.3-4.9-1.9-9.5-4.4-13.7-7.6-1.3-1-2.8-1.8-4.3-2.5l-10.2-5.1c-2.2-1.1-4.6-1.6-7-2.1-4.8-1.2-9.6-1-14.5-.5-3.8.4-7.4-.3-11.1-1.1-2.7-.6-5.3-1.4-8-2.1-2.6-.7-4.4-2.8-6.4-4.5-.5-.4-.4-1.1-.1-1.5.3-.5.9-.3 1.3-.1 11.2 3 22.6 3 34 1 1.5-.3 2.9-.6 4.4-.7 2-.3 3.2.1 3.5 1.6.5 3.1 2.9 3.3 5.2 3.9 5.1 1.4 10.4 2.3 15 5.1 1.7 1 3.5 1.6 5 3-2-3.9-3.2-8.1-5.5-11.7-2-3.1-3.7-6.3-6.1-9.1-2.6-3-5.6-5.5-9-7.3-3-1.5-5.8-3.3-8.6-5-3.9-2.4-7.8-4.8-12-6.7-.6-.3-1.3-.6-1.9-1.1-.7-.6-1.2-1.3-1.1-2.3.1-1.1.4-1.4 1.3-.8 4 2.3 8.2 4.2 12.3 6.3l16.4 8.2a18.22 18.22 0 0 0 6.8 1.9c1.1.1 2 .5 2.9.9 1.2.6 1.8 1.9 1.2 3.2-1.2 2.5-.2 4.4 1.5 6.2 3.4 3.8 6.7 7.7 9.2 12.2 1 1.7 2.6 2.8 5.6 4-.2-2.2.8-4.1 1.1-6.2.4-2.4 3.5-4 5.9-3.3 3.3.9 6.5 2 9.7 3 3.9 1.2 7.8 2.6 11.6 3.9 1.9.6 3.7 1.1 5.7 1.2 1.4.1 2.6.4 3.5 1.6.4.6 1.3.7 2.1.9 2.9.9 5.7 1.9 7.6 4.6.5.7.9 1.3 1.2 2.1.9 2.4 2.2 3 4.7 2.6 1.3-.2 2.5-.3 3.8-.6.7-.1 1.5-.1 2.1 0 2.7.5 3.5 2.5 2 4.7-.3.5-.8 1-1.2 1.6 1.8 1.1 3.4 2.4 4.7 4 1.2 1.4 1.9 2.9 1.7 4.8-.1.7.1 1.1.8 1.5 1.6.8 1.7 2.1.4 3.3z"/><g fill="#fefefe"><path d="M160.9 314c.4.6.8 1.2 1.6 1.4-.4-1.2-.6-2.4-1.8-2.9l-.4.4.6 1.1z"/><path d="M160.6 312.5l-.4.4a.78.78 0 0 0 .4-.4z"/><path d="M160.2 312.9c.2.4.4.8.7 1.1l-.7-1.1z"/></g><path d="M263 228.5c.2-1.2 1.3-1.7.7-2.7-.5.7-1.2 1.2-.7 2.7z"/><path d="M263.7 225.8z"/><path d="M263.7 225.8l-.1-.1.1.1z"/><path d="M263.7 225.8h0z"/><path d="M144.3 279.5c-.5.2-.9.5-.4 1 .2-.3.5-.5.7-.8 0-.1-.1-.2-.3-.2zm-.4 1.1z" fill="#fefefe"/><path d="M309 305.9c-.7.2-1.6-.1-2.2.6-.5.6-1.3.8-2.2 1.1 1.2 1.2 2.7 1.7 3.7 3.1.7-1.5 1.3-2.6 1.6-3.8.2-.8.4-1.5-.9-1zm4 .9c-.4.4-.3.9-.1 1.7.8-.6 1.5-1 2.3-1 2.2.1 2.9-1.2 3.4-3-2.3-.1-4.1.8-5.6 2.3zm10.6 17.9c-.1-.1-.3-.1-.4 0-.3.2-.1.3.1.4s.3.1.4 0c0-.1 0-.3-.1-.4zm-1.2-49.5c2.3 0 4.1-1.3 4.1-3 0-1.6-1.8-3-4.1-3s-4.1 1.3-4.1 3 1.8 3 4.1 3zm1.8-11.8c0 1.6 1.8 3 4.1 3s4.1-1.3 4.1-3-1.8-3-4.1-3-4.1 1.3-4.1 3zm1.5-14.7c0 1.6 1.8 3 4.1 3s4.1-1.3 4.1-3c0-1.6-1.8-3-4.1-3s-4.1 1.3-4.1 3zm14-8.9c0-1.6-1.8-3-4.1-3s-4.1 1.3-4.1 3c0 1.6 1.8 3 4.1 3s4.1-1.3 4.1-3zm-10.3-42.6c2.3 0 4.1-1.3 4.1-3 0-1.6-1.8-3-4.1-3s-4.1 1.3-4.1 3 1.8 3 4.1 3zm-20.3 27.1c-3 0-5.5 1.6-5.5 3.6s2.5 3.6 5.5 3.6 5.5-1.6 5.5-3.6-2.5-3.6-5.5-3.6zm17.8-14.3c3 0 5.5-1.6 5.5-3.6s-2.5-3.6-5.5-3.6-5.5 1.6-5.5 3.6 2.5 3.6 5.5 3.6zm-9.1-25.7c0-1.6-1.8-3-4.1-3s-4.1 1.3-4.1 3c0 1.6 1.8 3 4.1 3s4.1-1.4 4.1-3zM295 169.9c3 0 5.5-1.6 5.5-3.6s-2.5-3.6-5.5-3.6-5.5 1.6-5.5 3.6c0 1.9 2.5 3.6 5.5 3.6zm0-17.9c3 0 5.5-1.6 5.5-3.6s-2.5-3.6-5.5-3.6-5.5 1.6-5.5 3.6c0 1.9 2.5 3.6 5.5 3.6zm17.8-20.8c3 0 5.5-1.6 5.5-3.6s-2.5-3.6-5.5-3.6-5.5 1.6-5.5 3.6 2.5 3.6 5.5 3.6zm23 31c5.2 0 9.5-3.1 9.5-7 0-3.8-4.2-7-9.5-7s-9.5 3.1-9.5 7c.1 3.9 4.3 7 9.5 7zm-44 32.1c0 3.8 3.5 7 7.8 7s7.8-3.1 7.8-7c0-3.8-3.5-7-7.8-7-4.3.1-7.8 3.2-7.8 7zm53.5 28.5c0-2.8-3-5.2-6.7-5.2s-6.7 2.3-6.7 5.2c0 2.8 3 5.2 6.7 5.2 3.7-.1 6.7-2.4 6.7-5.2zm6.7-20.4c0-2.8-3-5.2-6.7-5.2s-6.7 2.3-6.7 5.2 3 5.2 6.7 5.2c3.7-.1 6.7-2.4 6.7-5.2z"/><ellipse cx="341" cy="176.8" rx="9.8" ry="7"/><path d="M321.3 286.5c0 1.4 1 2.6 2.2 2.6s2.2-1.2 2.2-2.6-1-2.6-2.2-2.6c-1.2.1-2.2 1.2-2.2 2.6zm12.1-1.1a2.65 2.65 0 0 0 2.6-2.6 2.65 2.65 0 0 0-2.6-2.6 2.65 2.65 0 0 0-2.6 2.6c0 1.5 1.2 2.6 2.6 2.6zm5.6-8c1.6 0 3-1.5 3-3.3s-1.3-3.3-3-3.3c-1.6 0-3 1.5-3 3.3s1.3 3.3 3 3.3zM283.8 4.5C129.5 4.5 4.3 129.7 3.9 283.8c-.4 153.7 123.9 280.5 279.7 280.6 155.9.1 280.2-126.5 280.2-279.9.1-153.7-124.5-280-280-280zm184.7 104.3c.5-.9 1-1.6 1.6-2 .6-.5 1.8-.1 3.7 1l10.1 6c.6.4 1 .7 1.3 1.1.5.6.5 1.3 0 2-1.3 1.8-2.1 2.8-2.4 3.1-.6.5-1.4.4-2.4-.3l-9.9-7.4c-1-.7-1.6-1.3-2-1.7-.4-.5-.3-1 0-1.8zm-7.1 4c3.9.9 7.1 2.8 9.5 5.8 2.6 3.2 3.7 6.9 3.3 11.1-.4 3.4-1.5 6.2-3.5 8.6-.6.7-1.2.8-1.7.5l-18.6-11.9c-1.2 1.8-1.7 3.7-1.6 5.6.1 1.8.6 3.3 1.7 4.6 2 2.4 4 4 6.1 4.9.7.3 1.2.7 1.5 1.3.4.7.3 1.3-.3 1.7-.6.5-1.6.6-3.1.4-3.7-.4-7.1-2.4-10.2-6.2-2.5-3-3.6-6.7-3.4-11 .3-4.9 2.4-8.8 6.3-11.8 4.4-3.5 9.1-4.7 14-3.6zM422.5 90c2.4-2.6 5.6-3.9 9.5-3.8 3.9 0 7.4 1.4 10.5 4 1.8 1.6 3 3.1 3.6 4.6.9-.1 1.6-.5 2.1-1.1.3-.3.5-.8.7-1.5s.4-1.2.7-1.5c.7-.8 1.6-1.2 2.7-1.1 1.1 0 2 .4 2.8 1.1 1 .9 1.6 1.9 1.7 3.2s-.2 2.3-.9 3.1c-.9 1-2.3 1.5-4.2 1.5-2.5.1-3.9.1-4.1.2.9 4.2 0 7.7-2.7 10.7-2.5 2.7-5.7 4.1-9.4 4.1-3.9.1-7.5-1.3-10.8-4.1-1.1-1-2.1-2-2.8-3.1-1.1-.1-2 .3-2.8 1.1-1.1 1.2-.7 2.6 1.1 4.2.4.3 1.4 1 3.2 1.9 1.7.9 3.1 1.9 4.2 2.8 1.8 1.5 2.7 3.3 2.8 5.2.1 1.8-.5 3.3-1.8 4.7-1.4 1.6-3.1 2.4-4.9 2.5s-3.4-.4-4.8-1.6c-.5-.5-1.1-1.2-1.8-2.3s-1.2-1.8-1.7-2.2c-.7-.6-1.4-.7-2.1-.3-2.4 1.4-4 1.8-4.7 1.2-.6-.5-.9-1.6-.9-3.1a13.2 13.2 0 0 1 .6-3.9c.2-.6.5-1.1.8-1.4 1.2-1.3 2.8-1.1 4.8.6.6.5 1.4 1.5 2.3 2.7.9 1.3 1.6 2.2 2.2 2.6 1.3 1.1 2.5 1.1 3.5 0 .9-1 .8-2.1-.5-3.2-.2-.1-1.3-.9-3.5-2.3-2.5-1.7-4.4-3.4-5.6-5.2-2.3-3.2-2-6.4 1-9.6 1.4-1.6 3.5-2.5 6.1-2.9 0-2.9 1-5.5 3.1-7.8zm-26.9-25.4c-.2-.6-.2-1.1 0-1.4.4-.7 1.8-.9 4.2-.7 2.3.1 3.9.5 4.8 1.1 1.5.9 1.9 2.3 1.2 4.3 2.9-.7 5.9-.2 9.1 1.8 1.8 1.1 2.9 2.7 3.4 4.8.5 2.4.1 4.6-1.3 6.7l-8.2 12.5c-1.1 1.7-1.8 2.7-1.9 3-.3.6-.3 1.1-.1 1.6l.6.9c.2.3.2.6-.1.7-.6.4-1.7.6-3.3.4-.9-.1-1.9-.5-3.1-1.2l-.8-.5c-1.1-.7-1.8-1.8-2-3.3s.2-3 1.2-4.6l8.3-12.7c1.8-2.7 1.7-4.6-.1-5.7-1.9-1.2-3.7-.4-5.5 2.3l-9.4 14.3c-.7 1-1.6 1.6-2.8 1.9s-2.4.1-3.4-.6l-.4-.2a4.43 4.43 0 0 1-2-2.7c-.3-1.2-.1-2.3.6-3.3L395 68.1c.5-.8.8-1.6.8-2.3.1-.2 0-.6-.2-1.2zm-32.8-15.9c4.1-1.7 8.2-1.8 12.2-.2 4.1 1.6 6.9 4.5 8.5 8.6s1.5 8.2-.3 12.3-4.8 7.1-8.9 8.8-8.2 1.8-12.3.1c-4-1.6-6.8-4.5-8.4-8.5-1.6-4.1-1.5-8.2.3-12.3s4.8-7 8.9-8.8zm-29.2 14.1l7.6-27.1c.8-2.6.9-4.2.3-4.7-1-.9-1.4-1.6-1.3-2 .2-.6.7-1.2 1.6-1.8 1.3-.9 2.8-1.6 4.5-2.1 2.3-.7 4.2-.8 6-.3 1.1.5 1.3 2 .6 4.6L343.7 62c-.6 2.2-1 3.5-1.1 3.8-.2 1-.1 1.7.2 2.2.3.2.6.5.8.7.3.2.3.5.2.7-.4.5-1.4 1-3 1.4-1 .1-2.1 0-3.3-.3l-.9-.2c-1.3-.3-2.2-1.2-2.9-2.7-.5-1.4-.6-3-.1-4.8zm-39.4-3c.8-.8 1.3-1.9 1.6-3.4l3.8-28.1c.3-1.9.2-3-.5-3.5-1.1-.8-1.6-1.4-1.5-1.8.1-.7.5-1.4 1.3-2 2-1.5 4.4-2.6 7.3-3.3 2.4-.6 5.4-.6 9.2-.1 4.7.6 8.6 2.3 11.7 5.2 3.4 3.3 4.8 7.4 4.2 12.2-.5 4-2.6 7.2-6.2 9.7-3.8 2.7-8.3 3.7-13.3 3-1.5-.2-2.7-.5-3.7-.9l-1.1 8.4c-.1 1.1-.4 2.2-.7 3.3s-.9 2.1-1.7 3-1.6 1.4-2.4 1.5-2.3.1-4.4 0c-1.9-.2-3.1-.3-3.6-.5-.7-.2-1.1-.6-1-1.1-.2-.3.2-.8 1-1.6zm-50.8-23.2c1.6-2 3.8-3.2 6.5-3.5 1.2-.1 2.7 0 4.3.3.7.2 1.6.2 2.5.1 1.1-.1 2.1-.4 2.8-.8 1.2-.8 2-1.2 2.3-1.2 1-.1 1.6 1.1 1.9 3.5.1.8-.1 1.7-.7 2.7-.7 1.2-1.8 1.9-3.2 2-1 .1-2.1-.2-3.4-1s-2.4-1.1-3.5-1c-2.3.3-3.3 1.4-3 3.4.2 1.7 1.3 2.9 3.2 3.4 1.2.3 3.6.8 7 1.7 2.3.6 4.2 1.5 5.7 3 1.5 1.4 2.4 3 2.6 4.6.8 6.5-3.4 10.4-12.8 11.5-2.3.3-4.3.2-6-.3-1.2-.3-2.6-1-4.2-1.9-1.3-.7-2-1.5-2.2-2.3-.1-.9.3-1.5 1.4-1.6.3 0 .7 0 1 .1 3.9 1.2 7.1 1.7 9.3 1.4 1.2-.1 2.1-.6 2.7-1.2.6-.7.9-1.5.8-2.4-.3-2-1.7-3.3-4.3-3.9l-5.2-1.2c-4.6-1.1-7.1-3.9-7.7-8.4 0-2.7.6-5 2.2-7zm-37.5 7.7c1.7-1.6 3-2.5 4.1-2.8 1.6-.4 3 .3 4.1 2.2.7 1.6 1.2 2.9 1.5 3.8l4.1 14.2c.8 2.6 2.3 3.6 4.5 3 2-.6 2.7-2.1 1.9-4.7l-5-17.1c-.3-1.1-.2-2.2.4-3.3s1.5-1.7 2.7-2.1l.5-.1c1.2-.3 2.3-.2 3.4.4s1.8 1.5 2.1 2.6l5.3 18.2c.6 2 .9 3.1 1.1 3.5.3.8.7 1.2 1.3 1.4.4.1.7.1 1.1.2s.5.3.5.6c-.1.7-.7 1.6-1.9 2.6-.7.6-1.7 1.1-3 1.5l-.6.1c-.9.3-1.9.2-2.9-.1-1.2-.3-2-1-2.6-2-1.2 2.7-3.9 4.6-8 5.7-2.4.7-4.5.4-6.2-.7-1.5-1-2.6-2.5-3.2-4.6l-4.4-15.2c-.3-.9-.7-1.6-1.2-2.2-.1-.1-.5-.3-1.2-.6-.5-.2-.8-.6-.9-1-.1-.7.7-1.9 2.5-3.5zm-28.4-2.1c.5-1.5 1.2-2.9 2.2-4.4 1.3-1.9 2.8-3.2 4.4-3.8 1.2-.3 2.3.8 3.4 3.2l13.8 31.1 1.6 3.7c.5.9 1 1.4 1.6 1.5.4 0 .7 0 1.1.1.4 0 .6.2.6.5 0 .7-.5 1.6-1.5 2.9-.7.7-1.6 1.3-2.8 1.8l-.8.3c-1.2.5-2.5.4-4-.4-1.4-.7-2.5-2-3.3-3.7l-11.4-25.8c-1-2.5-1.9-3.8-2.8-3.9-1.4-.2-2.1-.4-2.3-.8-.1-.6-.1-1.4.2-2.3zM171.2 61c3.4.8 6.2 2.3 8.3 4.5.6.7.7 1.2.2 1.7l-14.8 16.2a9.91 9.91 0 0 0 5.5 2.3c1.8.2 3.5-.2 5-1 2.7-1.6 4.7-3.3 5.9-5.2.4-.6.9-1 1.5-1.2.8-.3 1.3-.1 1.7.5s.4 1.7 0 3.1c-.9 3.5-3.5 6.5-7.7 8.9-3.5 2-7.4 2.6-11.8 1.8-4.9-.9-8.7-3.5-11.3-7.6-2.9-4.7-3.5-9.4-1.7-14 1.4-3.6 3.8-6.4 7.2-8.4 3.8-2 7.8-2.6 12-1.6zm-22.4-2.5l7.6-8.8c.4-.5.9-.8 1.3-1.1.7-.4 1.4-.3 2 .3 1.7 1.5 2.6 2.4 2.9 2.7.4.7.2 1.4-.7 2.2l-8.9 8.5c-.9.8-1.5 1.4-2 1.7-.4.3-1 .2-1.7-.3-.8-.6-1.5-1.2-1.8-1.8-.6-.7-.1-1.8 1.3-3.4zm-27.9 37c.6-3.8 2.4-6.9 5.6-9.5 1.9-1.5 3.6-2.5 5.2-2.9 0-.8-.3-1.6-.8-2.2-.2-.3-.7-.6-1.4-.9s-1.2-.6-1.4-.9c-.7-.8-1-1.7-.8-2.8a4.61 4.61 0 0 1 1.5-2.6c1-.8 2.2-1.2 3.5-1.2 1.3.1 2.3.5 3 1.3.9 1 1.2 2.4 1 4.3-.3 2.4-.4 3.7-.3 4 4.4-.3 7.9 1 10.6 4 2.4 2.8 3.4 6 2.9 9.6-.4 3.7-2.3 7-5.7 9.7-1.2 1-2.4 1.7-3.6 2.3-.2 1 .1 2 .8 2.8 1.1 1.2 2.5 1.1 4.4-.5.4-.3 1.2-1.2 2.4-2.8 1.2-1.5 2.3-2.8 3.4-3.6 1.8-1.5 3.7-2.1 5.8-2 1.8.2 3.3 1 4.6 2.4 1.4 1.6 2 3.3 1.9 5s-.9 3.2-2.3 4.4c-.5.5-1.4.9-2.6 1.4s-2 .9-2.5 1.3c-.7.6-.9 1.2-.6 2 1.1 2.5 1.3 4.1.6 4.7-.6.5-1.7.6-3.3.4-1.3-.2-2.6-.6-3.9-1.1-.6-.3-1-.6-1.3-.9-1.2-1.3-.8-2.8 1.2-4.5.6-.5 1.7-1.1 3.1-1.8s2.4-1.3 3-1.7c1.3-1.1 1.5-2.2.5-3.4-.9-1-2-1-3.3.1-.2.1-1.1 1.1-2.9 3-2 2.2-4.1 3.7-6.1 4.7-3.6 1.7-6.9 1-9.7-2.2-1.4-1.6-2.1-3.7-2.2-6.3-2.9-.3-5.4-1.7-7.5-4-2.5-2.6-3.4-5.8-2.8-9.6zm-28.7 27.6c.4-2.2 1-3.6 1.7-4.5 1.1-1.3 2.6-1.5 4.5-.5-.4-2.9.6-5.7 3-8.4 1.3-1.5 3.1-2.4 5.4-2.6 2.5-.2 4.7.5 6.7 2.1l11.7 9.6c1.6 1.3 2.6 2.1 2.9 2.2.5.3 1.1.4 1.6.3.3-.1.7-.3 1-.4s.6-.1.7.2c.4.7.4 1.7 0 3.2-.2.8-.8 1.8-1.7 2.8l-.6.7c-.8 1-2.1 1.5-3.6 1.4-1.6 0-3.1-.6-4.5-1.8l-11.9-9.7c-2.5-2.1-4.5-2.3-5.9-.7-1.4 1.7-.9 3.5 1.6 5.6l13.4 10.9c.9.8 1.5 1.8 1.6 3s-.2 2.3-1 3.2l-.3.4c-.8.9-1.8 1.5-3.1 1.5-1.2.1-2.3-.3-3.3-1l-14.9-12.2c-.8-.6-1.5-1-2.3-1.1-.2 0-.6 0-1.3.1s-1.2.1-1.5-.2c-.4-.4-.4-1.8.1-4.1zm-32.7 19.8c.3-1.5.9-3.1 1.6-4.9.5-1.1 1-1.6 1.7-1.6.4 0 .8.4 1.3 1.1.4.6 1.4 1.1 3.2 1.5l37.3 7.5c1 .2 2.5.3 4.5.4 1.1-.1 1.7-.1 1.9 0 .5.3.6.8.3 1.4-.2.5-.9 1.6-2.1 3.5-1.3 2.1-2.3 3.4-2.9 3.9-1.2 1.1-3.2 1.2-6.3.6l-6-1.3-5.8 9.8 3.4 3.7c.6.7 1.2 1.1 1.7 1.4.6.3 1.1.4 1.6.2.9-.3 1.6-.4 1.9-.2.8.5.8 1.3-.1 2.4-1.7 2.1-3.1 4.3-4 6.8-.5 1.1-1.1 1.5-1.8 1.1-.3-.2-.7-.9-1-2.1-.2-1-.4-1.6-.6-1.8-.2-.6-.6-1.1-1.1-1.7l-22.7-24.1c-.7-.8-1.5-1.3-2.3-1.5h-1.9c-.8 0-1.4-.2-1.7-.8-.7-.9-.7-2.7-.1-5.3zM74.9 278c0 .4-.7 1.8-1 2-.7.4-1.4.8-2.3.7-.3 0-.4-.2-.6-.3-.4-.4-.8-.8-1.2-1.1-.2-.1-.4-.1-.6-.2l-.6-.3c-.3 0-.8 0-.8-.3.1-.6-.6-.7-.5-1.2v-1.4a.76.76 0 0 0-.2-.4l-.3.3c-.1.6.3 1.3-.4 1.7 0 .6 0 1.3-.1 1.9-.6.4-.3 1.2-.6 1.6s-.3 1.1-.8 1.4c.2.7-.3 1.2-.5 1.7s-.4.9-.7 1.4c-.4.6-.4 1.2-.1 1.8.2.4.4.7.3 1.1-.1.5.6.7.5 1.2s0 1 0 1.4v1.4c0 .3 0 .6-.3.8-.7.4-.6 1-.7 1.7-.1 1.2.3 2.3 1.3 3.1.4.4.6.9.9 1.3.5.7 1.5.8 2 1.5.1.2.6.1.9 0 .1 0 .2-.2.3-.3.2-.2.3-.4.5-.5s.5-.1.6 0c.5.3.9 1 1.4 1.8.4.8.4 1.1-.2 1.6l-1 1c.4.5 1.2.9 1 1.8v.2c.7.8 1.7 1.4 2 2.5 1 0 .8.7.8 1.3 0 .2.1.5-.2.6-.4.3-.6.9-1.3 1-.3 0-.5.2-.5.4.1 1.1-.7 1.5-1.4 2-.5.4-1.2.5-1.8.9-.4.3-1.1.1-1.6.1s-1.1.2-1.5-.3c-.3-.4-1 .1-1.3-.3s-1-.3-1.3-.8c-.5-.6-1.4-.6-1.9-1.1-.6-.5-1.1-1.1-1.7-1.7-.1 0-.1-.1-.2-.1-.6-.1-1.1-.5-1.6-.8a9.13 9.13 0 0 0-1.3-.8c-1.3-.7-2.7-1.3-4-2-.1 0-.1-.2-.2-.2-.6 0-1.3 0-1.9-.1-.4-.6-1.1-.6-1.7-.4-.6.1-1.1.7-1.7.4-.6-.2-.8.7-1.5.5-.6-.1-1 .5-1.6.7s-1.1.8-1.9.7c-.1 0-.3 0-.4.1-.4.5-1 .7-1.5 1-.7.4-1.2 1.1-1.7 1.7s-1.3.7-1.9 1.3-1 1.4-1.9 1.6c-.8.2-1.1 1.2-2 1.5-.5.1-.8.8-1.2 1.1-.3.3-.9.2-1.2.7-.3.6-1 .4-1.3.8-.3.5-1 .5-1.3.9-.4.4-.8.6-1.3.9-.3.1-.5.3-.8.3h-2.6c-.7-.1-1.4.3-2-.3-1.3-.4-2.3-1.2-3.2-2.2-.2-.3-.1-.8-.5-1-.1-.8-.6-1.3-1.2-1.6s-.9-.5-.8-1.1c.1-.4 0-.7-.3-1.1-.4-.4-.1-1-.1-1.6.6-.4.4-1 .4-1.5 0-.7-.2-1.4.5-2V306c0-.6-.1-1.1-.6-1.4s-.5-.9-.3-1.3c.1-.4.5-.8 1.1-.8h.7c.4 0 .5-.2.6-.5.3-.8.6-1.6 1.4-2.1.6-.4.4-1.1 1-1.5.5-.3.8-.8 1.2-1.2.1-.2.2-.4.2-.6 0-.6.1-1.3 0-1.9-.1-.7.2-1.2.5-1.7.2-.3.2-.5.6-.5h2.4c1.1 0 1.1.1 1.4-.3.2-.2.2-.2 0-.9-.1-.7-.3-1.4.3-1.9-.2-.8.7-1.4.5-2.2v-.2c.6-.4.4-1.2 1-1.5v-2.4c-.4-.4-.8-.2-1.2-.2h-1c-.5.1-.7-.3-1-.5s-.8.2-1.1-.2-.4-.1-.7 0c-.5.3-1.2.1-1.7.6-.1.2-.6 0-.9 0-.5 0-1.1-.5-1.1-1v-.5c-.1-.8.3-1.7-.2-2.3-.6-.7.2-1.6-.6-2.2-.2-.1-.1-.6-.1-.9-.1-.7.3-1.4-.4-2-.2-.1-.1-.6-.1-.9v-7c-.4-.7.6-1.1.5-1.7s0-1.3 0-1.9c.8-.6.4-1.5.5-2.2 0-.3.5-.9.9-1s.5.3.8.5c.4-.5 1.2-.8 1.2-1.6.4-.3.9-.6 1.4-.7.4-.1.8-.1 1.2 0 .4 0 .7-.2 1-.4 1.1-.8 1.4-2.2 2.2-3.2-.2-.6.7-.8.5-1.5.6-.2.3-1.1.8-1.3.3-1 .9-1.9 1.7-2.7.4-.3.9-.7.9-1.3 0-.1.3-.2.3-.3.2-.4.8-.1 1-.5.1-.3 0-.6.4-.8.1-.1.2-.3.3-.3.9.1 1.1-1.2 2-1.1 1-.7 2.2-1 3.1-1.7.5-.4 1.1.1 1.5-.5.3-.4.9-.2 1.2-.7 0-.1.3 0 .5 0 .6-.1 1.2.3 1.8-.3.5-.5 1.2-.1 1.8-.2s1.1 0 1.7 0h2.6c.5.1 1.1-.2 1.6.3.4.4.9.1 1.4.2s.9.6 1.5.5c.4 0 .8.4 1.2.6.3.1.6.4 1.1.4.1 0 .4 0 .4.1.5.7 1.3.8 1.9 1.3.9-.1 1.1 1.2 2 1l3.1 3.1c.5.5 1.1.8 1.3 1.4s.9 1 1 1.5c.2.6.5 1.1.8 1.6.2.4.2.7.3 1.1 0 .4.6.5.5 1-.2.6.6.9.5 1.5-.1.5.1 1 0 1.4-.1.7.7 1 .5 1.7-.1.5 0 1.1 0 1.7.9.9.3 2.1.5 3.2.1.4-.1.8 0 1.2.1.3.6.5.5 1 .6.3.3 1.1.5 1.4.5.5.4 1 .4 1.5 0 .6.3.7.7.6.5.5 1.2.6 1.8 1 .1 0 .2 0 .2.1l.3.3c.5.5.9 1 1.4 1.3.4.3.3.9.7 1.2s.2.7.2 1.1c-.5 1.2-.5 2.1-.6 3.1zm48.8 209.3c-1.9.7-3.6 1.1-5.1 1.1-4.2-.1-8.4-2-12.4-5.7-.6-.6-1.5-1.5-2.5-2.7l-2.8-3c-1.7-1.6-4-3.3-6.9-5-.8-.5-.9-1.1-.3-1.7.2-.2.8-.4 1.8-.6 1.2-.2 2.3-.9 3.3-2l19.3-21.1c1.3-1.3 1.9-2.4 1.6-3.2-.4-1.3-.5-2-.2-2.3.4-.5 1.2-.8 2.2-.9 2.4-.3 5 .2 7.8 1.5 3 1.5 5.6 3.1 7.6 5 3.4 3.1 5.4 6.7 5.9 10.8.5 3.9-.4 7.1-2.7 9.6-2.6 2.8-5.8 3.9-9.7 3.3.9 2.7 1.1 5.2.7 7.6s-1.6 4.7-3.5 6.7c-.8 1-2.2 1.9-4.1 2.6zm25.1 20.5c-.4.6-1.3 1-2.8 1.3-3.5.7-7.3-.3-11.2-3-3.2-2.2-5.3-5.4-6.4-9.6-1.2-4.7-.4-9.1 2.4-13.1 3.1-4.6 7.1-7 12-7.4 3.9-.3 7.4.7 10.5 2.8 3.4 2.3 5.5 5.5 6.3 9.7.7 3.3.4 6.4-.7 9.2-.3.8-.8 1.1-1.5.9l-20.7-6.1c-.6 2.1-.5 4 .1 5.8a8.5 8.5 0 0 0 2.9 4c2.5 1.7 4.9 2.7 7.1 3 .7.1 1.3.4 1.7.8.7.5.7 1.1.3 1.7zm14.9 11.1l.6.9c.2.3.2.5 0 .8-.5.4-1.6.6-3.2.7-1-.1-2-.5-3.1-1l-.8-.4c-1.1-.6-1.8-1.7-2.1-3.2s0-3.1.9-4.7l13.4-24.6c1.4-2.3 1.8-3.8 1.4-4.5-.7-1.1-.9-1.9-.7-2.2.3-.6.9-1 1.9-1.4 1.4-.6 3-.9 4.8-1 2.3-.2 4.2.2 5.7 1 1 .7.8 2.3-.5 4.6l-16.2 29.7c-1.1 2-1.8 3.2-1.9 3.5-.3.5-.4 1.3-.2 1.8zm17 7.9c.2.3.5.6.7.8.2.3.2.5 0 .8-.5.5-1.5.8-3.1.9-1 0-2-.3-3.1-.8l-.8-.4c-1.2-.5-1.9-1.5-2.3-3.1-.4-1.5-.2-3.1.6-4.8l11.6-25.5c1.2-2.4 1.6-4 1.1-4.6-.8-1.1-1.1-1.8-.9-2.2.3-.6.9-1.1 1.8-1.5 1.4-.7 2.9-1.1 4.7-1.4 2.3-.3 4.2-.1 5.7.6 1 .6 1 2.2-.2 4.6l-14 30.8c-1 2.1-1.5 3.3-1.6 3.6-.5 1-.5 1.8-.2 2.2zm39.4-3.5c-.1.9-.5 1.3-1.2 1.3l-21.6-.2c0 2.1.6 4 1.7 5.6 1 1.5 2.3 2.5 3.9 3 2.9 1 5.5 1.3 7.6.9.7-.1 1.4 0 1.9.3.7.4.9.9.7 1.6s-1 1.4-2.3 2c-3.2 1.6-7.1 1.7-11.6.2-3.7-1.2-6.6-3.7-8.8-7.5-2.4-4.2-2.9-8.6-1.3-13.3 1.8-5.2 4.9-8.7 9.5-10.4 3.6-1.3 7.3-1.4 10.9-.2 3.9 1.3 6.8 3.8 8.7 7.6 1.6 3.1 2.2 6.1 1.9 9.1zm38.8-18.9c-.1.6-.6 1.2-1.6 1.7-.5.3-.9.8-1.1 1.6-.1.4-.3 1.6-.6 3.6l-4.1 28.9c-.2 1.1-.4 2.2-.7 3.3a6.57 6.57 0 0 1-1.7 2.9c-.8.9-1.6 1.3-2.4 1.5-.8.1-2.3.1-4.6-.1-2-.2-3.3-.4-3.8-.5-.7-.2-1-.6-1-1.1 0-.2.4-.7 1.2-1.5s1.3-1.9 1.5-3.4l4.5-31.5c.3-1.9.4-3.2.4-3.8 0-.8-.2-1.4-.7-1.8-.7-.6-1.1-1.2-1-1.8.1-1 .9-1.2 2.4-.8 1.2.4 3 .8 5.5 1.2s4.3.5 5.5.4c1.7-.2 2.4.2 2.3 1.2zm.2-4.9c-1.5-.2-2.5-.4-2.8-.6s-1.6-2-4-5.3l-3.7 3.3c-.6.5-1.2.8-1.7.8-.2 0-.9-.1-2-.2-2.2-.3-3.3-.7-3.2-1.2.1-.4.3-.7.6-1l7-6.2c.6-.6 1.2-.9 1.8-1 .4-.1 1.1 0 2.1.1 1.2.2 2 .4 2.5.6.4.2 1 .9 1.6 1.8l4.7 7.3c.3.4.4.8.3 1-.2.7-1.3.9-3.2.6zm15 8.1l-2 33.7-.2 4c0 1 .2 1.7.7 2.1.3.2.6.4.9.5.3.2.4.4.3.7-.3.6-1.1 1.2-2.6 1.9-.9.3-2 .4-3.2.4h-.9c-1.3-.1-2.4-.8-3.3-2-.9-1.3-1.3-2.8-1.2-4.7l1.6-28c.2-2.7 0-4.3-.6-4.7-1.1-.7-1.6-1.3-1.6-1.7 0-.7.4-1.3 1.1-2.1 1-1.1 2.3-2.1 3.9-3 2-1.1 3.8-1.6 5.6-1.5 1.2.2 1.7 1.7 1.5 4.4zm33.5 24l-20.2 7.5c.8 2 2 3.5 3.6 4.6 1.5 1 3.1 1.5 4.7 1.4 3.1-.1 5.6-.7 7.5-1.8.6-.4 1.3-.5 1.9-.4.8.1 1.2.5 1.2 1.2s-.4 1.6-1.4 2.7c-2.4 2.7-6 4.1-10.8 4.3-3.9.2-7.5-1.1-10.8-3.8-3.8-3.1-5.8-7-6-11.9-.2-5.5 1.5-9.9 5.2-13.1 2.9-2.5 6.3-3.9 10.1-4 4.1-.2 7.7 1.1 10.8 4 2.5 2.3 4.2 4.9 4.9 7.8.1.7-.1 1.2-.7 1.5zm50.5 8.3c-.5.8-1.2 1.2-2.1 1.1-1.5-.1-3.2 0-5.2.5l-13.4 3.3-5.7 1.6c-.7.3-1.1 0-1.3-.7 0-.2.1-.8.6-1.8.4-1 .5-2.3.1-3.7l-7.7-31-1-3.7c-.3-.8-.7-1.2-1.3-1.4-.9-.3-1.4-.7-1.6-1.3-.2-.9.1-1.4.9-1.5.4-.1 2.4-.4 5.9-1.1l13.1-3.2c2.1-.5 3.7-1.1 4.8-1.9.8-.5 1.6-.5 2.4 0 2.3 1.3 4 3.7 5 7.3.3.9 0 1.4-.7 1.6-.5.1-1 0-1.5-.3-2.6-1.9-6.2-2.3-10.6-1.2L332 504c.8.8 1.5 2.1 1.9 3.8l2.4 9.7 5.9-1.5c1.9-.5 3.7-1.2 5.3-2.1.9-.5 1.6-.5 2 .1.3.4.4.8.6 1.3.3 1.2.3 2.8 0 4.9-.4 2.4-1.1 3.7-2.1 3.9-.7.2-1.2 0-1.6-.5-.7-.9-1.5-1.6-2.5-1.8-1.3-.3-3.1-.1-5.5.5l-.9.2 3 12c.5 1.9.5 3.3.1 4.2l7.1-1.8c4.5-1.1 7.4-3.1 8.8-6 .3-.5.7-.9 1.1-1 .8-.2 1.2.2 1.4 1 .8 3.8.5 6.8-.9 9zm31.7-12c-.6.6-1.5 1.2-2.8 1.7l-.8.3c-1.2.5-2.4.3-3.8-.4-1.3-.7-2.4-1.9-3-3.7l-5.5-14c-1.2-3-2.7-4.1-4.7-3.3s-2.4 2.7-1.3 5.6l6.2 15.7c.4 1.1.4 2.2-.1 3.3s-1.3 1.9-2.4 2.3l-.5.2c-1.1.5-2.3.4-3.4-.1s-1.9-1.3-2.3-2.4l-6.9-17.5c-.4-.9-.8-1.6-1.4-2-.1-.1-.5-.3-1.1-.5s-1-.5-1.2-.9c-.3-.7.3-2 1.8-3.8 1.4-1.7 2.6-2.7 3.6-3.1 1.6-.6 2.9-.1 4.1 1.6 1-2.7 3.2-4.7 6.6-6 1.9-.7 3.8-.7 5.8.2 2.2 1 3.8 2.6 4.7 4.9l5.5 13.8c.8 1.9 1.2 3 1.4 3.3.3.5.7.9 1.3 1 .4 0 .7.1 1.1.1s.5.2.5.5c.1 1.1-.4 2.1-1.4 3.2zm52.2-31.8c-.5.6-1.6 1.6-3.2 2.8-1.5 1.1-2.5 1.8-2.9 2-.7.3-1.2.3-1.5-.2-.1-.1-.2-.8-.1-1.9s-.3-2.3-1.2-3.6l-10.9-15.9c-.5-.7-.9-.9-1.2-.6-.3.2-.4.7-.4 1.3l.8 11.6c0 1.2-.4 2-.9 2.3-.5.4-1.3.4-2.4-.1l-11.3-4.5c-.5-.2-.9-.2-1.2 0-.5.3-.4 1 .3 2l7.9 11.6c1.5 2.2 2.5 3.8 3 5 .6 1.3.7 2.6.5 4-.3 1.3-1 2.4-2.1 3.2-1 .7-1.7 1.1-2 1.2-.5.2-.8.1-1.1-.3s-.4-.9-.2-1.6c.2-1.3-.2-2.7-1.2-4.1l-16-23.3c-1.3-1.9-2.4-2.6-3.5-2.2-.7.2-1.3.1-1.6-.4-.3-.4-.4-1.2-.3-2.3.2-1.6.5-3.2 1-4.8.7-2.1 1.5-3.5 2.3-4.1s2.1-.1 3.9 1.3c.6.5 2.7 1.4 6.2 2.7l9 3.3c1 .3 1.7.4 2.1.1.5-.3.7-1 .6-2.1l-.7-9.1c-.1-1.8-.4-3-.9-3.6-.3-.4-.7-.7-1.3-.7-.4 0-.7-.1-1-.1-.5-.1-.8-.3-1.1-.6-.6-.8 0-1.7 1.6-2.4 2.8-1.3 5.4-3.1 7.7-5.3 1.3-1.2 2.3-1.5 2.8-.7.3.4.2 1.1 0 2.3-.1.6 0 1.3.5 2.2.3.6 1.2 1.8 2.5 3.7l15.8 23.1a27.55 27.55 0 0 1 1.7 2.9c.5 1 .8 2.1.7 3.3.1 1-.2 1.9-.7 2.6zm20.3-16.5c-2.8 2.7-6.4 4.1-10.7 4.2-4.9.1-9-1.6-12.3-5.1-3.8-4-5.3-8.4-4.7-13.3.5-3.8 2.2-7.1 5-9.7 3-2.8 6.6-4.2 10.8-4.1 3.4.1 6.3 1 8.8 2.7.7.5.9 1.1.6 1.6l-10.4 18.9c1.9 1 3.8 1.4 5.7 1.1 1.8-.2 3.3-.9 4.5-2 2.2-2.1 3.7-4.2 4.4-6.3.3-.7.6-1.2 1.2-1.5.7-.4 1.2-.4 1.7.1s.7 1.5.7 3c-.1 3.7-1.8 7.1-5.3 10.4zm19.7-21.7c-.3.9-.8 1.9-1.6 2.8l-.5.7c-.8 1-2 1.5-3.5 1.5s-3-.6-4.4-1.8l-13-10.8c-.7-.6-1.5-1-2.2-1.1-.1 0-.6 0-1.3.2-.6.1-1 0-1.3-.2-.6-.5-.7-1.9-.2-4.2.4-2.2 1-3.6 1.6-4.5 1.1-1.3 2.5-1.5 4.4-.6-.4-2.8.5-5.5 2.6-8.1 1.3-1.6 3-2.5 5.1-2.7s3.8.3 5.3 1.5c.3.2.5.4.7.7l1.4 1.8c.5.7 1 1.3 1.4 1.7.9 1.1 1.9 1.5 3.1 1.2.2-.1.5 0 .7.2s.3.5.3.8c-.4 1.3-.9 2.3-1.5 3.1-.9 1.1-1.8 1.8-2.7 2.2-1.3.5-2.6.2-3.9-.9-.3-.2-.6-.5-.8-.8l-1.8-2.3c-.7-.8-1.4-1.2-2.3-1.2s-1.6.4-2.3 1.2c-1.6 1.9-1.2 3.9 1.1 5.8l9.8 8.1c1.5 1.3 2.5 2 2.8 2.2.5.3 1.1.4 1.6.3.3-.1.7-.3 1-.4s.6-.1.7.2c-.1.8 0 1.8-.3 3.4zM283.2 485c-110.1-.2-200.6-89.6-200.4-201.1.2-110.7 90-200.5 201-200.4 111.6.1 200.9 91 200.5 200.8.2 110.5-89.9 200.8-201.1 200.7zm204.9-314.1l-16.3-14.8c-1.5 1.6-2.3 3.3-2.6 5.2-.3 1.8 0 3.4.9 4.9 1.5 2.7 3.3 4.6 5.2 5.9.6.4 1 .9 1.2 1.5.3.7.1 1.3-.6 1.6-.7.4-1.7.3-3.2-.1-3.6-1-6.6-3.6-9-7.8-1.9-3.4-2.4-7.2-1.4-11.4 1.1-4.7 3.9-8.3 8.3-10.6 5-2.7 9.8-3.1 14.5-1.2 3.7 1.5 6.5 3.9 8.4 7.2 2 3.6 2.5 7.4 1.3 11.5-.9 3.3-2.6 5.9-5 7.9-.6.6-1.2.7-1.7.2zM549 279.2c-.1.1-.2.2-.3.4-.8 1.2-1.8 1.4-3 .8-.3-.2-1 0-.9-.8 0-.1-1.5-.7-1.8-.8-.3 0-.6-.1-.6-.3.1-.9-1.2-1.1-1.1-2 0 0-.1-.1-.2-.1s-.2.1-.2.2c0 .5 0 .9-.1 1.4 0 .4-.1.8-.1 1.2-.7.3-.1 1.1-.5 1.5-.5.4-.2.9-.4 1.3-.2.3-.5.5-.5 1 0 .2.1.5-.2.6-.7.4-.7 1.1-.9 1.8-.4 1.3-.5 1.3.1 2.8-.2.7.4 1.1.5 1.7.1.7 0 1.4 0 2.2-.8.3-.2 1.2-.7 1.6-.4.3-.2.9-.7 1.2v.2c.7.3.1 1.1.5 1.5.4.3.2.9.7 1.2.3.2.6.5.8.8s.4.6.5 1c.2.5.8.4 1.2.7s.5.8 1.1.8c.4 0 .5-.5 1-.5.2 0 .5-.4.8-.4.5-.1.6.4.9.6.6.3.5 1.1 1 1.5.1.1.1.5-.1.6-.3.2-.3.5-.4.8-.1.2-.5.2-.8.4-.1.1-.2.3-.1.4.6.9.8 2.2 1.7 2.9s1.1 1.8 2 2.5c.3.2.1 1-.2 1.3l-.2.2c-.5.3-1.4.4-1.4 1-.1.6-.6.9-.6 1.5 0 .5-.8.6-1.3.9-.4.3-1 .3-1.4.8-1 0-1.9 0-2.9-.1-.3-.6-1.1-.2-1.4-.5-.4-.4-.8-.3-1.2-.6s-1-.4-1.3-.9-1-.3-1.3-.8c-.2-.4-.6-.8-1.1-.9-.6-.1-.8-.9-1.3-1-.8-.1-.9-.8-1.5-1-1.1-.4-2-1-3-1.4-.3-.1-.5-.5-.8-.5-.7 0-1.2-.8-2-.5-.4.1-.9.1-1.3-.3s-1.2-.3-1.5 0c-.4.3-.8.5-1.3.4-.8-.2-1.3.3-2 .5-.4.2-.7.6-1.3.4-.3-.1-.4.2-.6.3-.2.2-.5.6-.7.6-1-.2-1.3.7-2 1-.7.2-1.1.8-1.6 1.3-.4.4-.9.5-1.3.8-.5.4-.9.9-1.4 1.3-.4.4-.7 1-1.2 1.1-.7.3-1.2.7-1.6 1.2-.5.5-1.3.5-1.7 1.2-.6.1-1.1.5-1.5 1s-1.2.5-1.5 1c-.4.6-1.2.4-1.5 1-.5-.1-.7.2-1 .5s-.6.5-1 .4h-2.9c-.5 0-1.1.2-1.6-.2-.7-.6-1.7-.6-2.3-1.4-.4-.5-.9-.9-1.4-1.4-.2-.2-.2-.4-.1-.7.1-.6-.4-.8-.7-1.2-1.2-.1-1.3-.9-1.3-1.8 0-.2-.1-.4-.3-.6-.4-.5-.1-1.1-.2-1.6.8-.7.4-1.6.5-2.4 0-.5-.1-1.1.5-1.5-.1-.4.1-.8-.2-1.1-.5-.5-.5-1.1.1-1.6.1-.1.1-.3-.1-.3-1.4 0-.4-1.1-.7-1.6.3-.5.6-1 1.3-.8.4.1.6-.2.8-.4.8-.7 1-1.7 1.8-2.4.1-.1.1-.4.3-.6.3-.4.7-.7 1-1 .3-.4.2-.9.7-1.2.4-.2.5-.6.5-1v-2.4c0-.5.5-1.1 1-1.1h2.6c1 .1 1.2 0 1.2-.8v-1.9c.7-.4.4-1.1.5-1.7v-.2c.7-.3.3-1.1.7-1.7.7-1 .9-2.1.7-3.3-.3 0-.5-.1-.7-.1-.5 0-1-.1-1.4 0-.6.1-.8-.7-1.2-.5-.6.3-.9-.8-1.4-.2-.4.5-1.1 0-1.5.5s-1.1.2-1.6.2c-.3 0-.6-.5-.7-.9-.1-.6-.1-1.3 0-1.9s-.4-1-.5-1.5.2-1.1-.3-1.5c-.1 0-.1-.1-.2-.2-.1-.7.2-1.5-.2-2.1-.5-.6-.2-1.2-.3-1.8-.1-1.6-.1-3.2 0-4.8.1-1.1-.5-2.4.5-3.4v-.2c.1-.9-.3-1.9.5-2.7v-1.9c0-.3.1-.6.5-.6.3 0 .8-.2 1 .4.1.5.4 1 .6 1.4h.2c.1 0 .2-.1.2-.2 0-.4.2-1-.3-1.3-.2-.2-.2-.5-.1-.6.3-.4.7-.7 1-1 .4-.4.8-.8 1.4-.6.9.2 1.6-.3 2.3-.7.8-.5 1.2-1.4 1.4-2.3.3-.9 1.4-3.4 2-4 .5-.4.5-1.1 1-1.5.4-.3.8-.8 1.2-1.2.3-.3.1-.7.5-1 .6-.5 1.1-1.1 1.7-1.7.1-.1.3 0 .4-.1 1-.9 2.1-1.4 3.3-1.9.7-.3 1.4-.8 2.2-1 .3-.7 1.1-.2 1.4-.5.5-.5 1-.4 1.5-.3.8.1 1.3-.7 2.2-.5.8.2 1.8 0 2.6 0h2.4c.5 0 1.1-.2 1.6.3.4.4 1.2 0 1.6.2.4.3.8.5 1.3.5s.7.6 1.2.5c.3.4.6.5 1 .4.1 0 .4 0 .4.1.7.9 1.8 1.1 2.7 1.7s1.8 1.2 2.5 2 1.5 1.6 2.4 2.4c.4.3.2.9.7 1.2.3.2.6.5.9.8a.76.76 0 0 1 .2.4c-.2.6.3 1 .5 1.5s.4 1 .7 1.4c.2.3.3.5.3.9-.1.6.3 1 .4 1.5.2.5 0 1.1 0 1.7.9 1.1.3 2.4.5 3.6 0 .5 0 .9.4 1.3.2.2 0 .6-.2.8-.2.1-.2.2 0 .4.2.1.4.3.3.6-.2.6.5.9.5 1.5-.1.5.3.8.5 1.2.3.6.7 1.2.5 2-.1.4.2.4.5.6 2.3 1 2.6 1.2 3.9 2.7.5.6.9 1.2.9 2 0 .9-.1 1.8 0 2.6.2.5.1 1-.5 1.4z"/><path d="M535 298.4c.4 0 .3-.2-1-1.5-.3-.3-.7-.6-1-1-.5-.6-1.4 0-1.8-.8-.4.5-.9.7-1.3.1-.5.3-1 .7-1.5-.1-.1 0-.1.1-.2.1-.4.5-.8.5-1.2 0-.1-.2-.2-.1-.3.1-.2.3-.6.4-.8.2-.5-.6-1.2-.3-1.8-.4-.8.8-1.8.5-2.7.5h-10.6c-.6 0-1.3.3-1.7-.4-.7 0-1.4-.3-2 .4-.1.1-.5-.1-.6.2-.3.4-.4.2-.7 0-.1-.1-.5-.1-.6-.1-.4.2 0 .4.1.5a3.04 3.04 0 0 0 .7.5l-.9.9c-.1.1-.1.2-.1.3.2 0 .6.2.6.1.5-.5.9-.7 1.3 0 .7 0 1.1.6 1.5 1 .1.1.7 1.7.7 1.8 0 .4.1.6.5.6s.5.3.7.5c.3.2.3.5 0 .8-.2.2-.3.3-.3.6-.1.5-.4.6-.8.4-.6-.3-.6-.3-.6.2v1.4c0 .5-.4.4-.7.4h-.2v.5c0 .4-.3.6-.6.5-.2-.1-.4-.2-.4-.5v-.5h-2.6c-.1 0-.2.2-.2.4 0 .1 0 .3.1.4.2.2.5.2.6.1.3-.5.8-.5 1.3-.4.3 0 .4.2.4.5 0 .2-.1.5 0 .7.1.3.3.2.5 0 .2-.3.4-.1.4.1 0 .5.2.7.7.7.3 0 .6 0 .8-.3.1-.2.2-.2.3 0 .3.4.6.5 1 .1l3.4-3.4c0-.4.1-.8 0-1.2-.2-.7.5-1.1.6-1.7 0-.4.8-.3 1.1-.7.2-.2.7-.1 1.1.1 1.1.5 1.5.5 2.3-.2.2-.2.4-.5.8-.5s.5-.6 1-.5c.4.1.7-.2 1-.4.4-.2 1-.1 1.5-.5.4-.4 1.2.2 1.8-.4.4-.4 1.1-.1 1.6-.2h2.4c.6 0 1.3.1 1.9 0 .4-.1.7-.6 1.1-.9.1-.1.3 0 .4-.1.9-.4.8-.4 1.3 0 .7.4.9 1.1 1.7 1zm-32.7-24.5c-.4-.4-.2-.7.1-1 .2-.1.1-.2 0-.4-.4-.8-.5-1.7-.1-2.4.3-.5.1-.7-.1-1.2-.2-.4-.1-1.1-.1-1.6 0-.6-.8-1-.5-1.7s-.3-1.3-.5-1.9c-.2-.4-.5-.7-.4-1.3.1-.5-.6-.7-.5-1.2 0-.2-.4-.2-.6-.2s-.3-.3-.3-.5-.2-.4-.4-.6c-.1-.1-.2-.6-.5-.2-.1.1-.1.3-.1.4.2.4.7.6 0 1.1-.1.1-.1.6-.4.8-.2.1-.2.3 0 .3.7 0 1 .7 1.5 1 .1.1.3 0 .5 0 .3.1.2.3 0 .5-.3.2-.1.4.1.4.3.1.9-.1.3.6-.3.3-.3.4 0 .8.2.3.3.5.3.8-.1.5.2.7.7.7.1 0 .2.3.2.3-.7.7-.4 1.6-.3 2.4.4.3.4.6.4 1 0 .5 0 .9-.4 1.3-.1.1-.1.4.1.6s.4.3.4.6v1.4c0 .5-.5.7-.5 1.2 0 1.1-.7 2.4-1.5 2.9-.4.3-.9.1-1.4.1-.3 0-.5-.3-.7-.5-.3-.2-.1-.7-.5-1s.1-1.1-.5-1.5c-.1-.1-.2-.4-.1-.6.3-1.1-.6-1.9-.6-2.9-.5-.3-.3-.5 0-.9.1-.1 0-.4-.1-.6 0-.1-.3-.1-.4-.1-.3 0-.4.2-.4.5v.7c0 .5-.1 1.1.5 1.5v1.9c.6.4.5.9.5 1.5-.1.6.6.8.5 1.5 0 .7.5 1.1 1.2 1.1h1.2c.5 0 .5.3.5.6v.5c0 .1.2.3.3.3.2.1.5 0 .6-.2.1-.1 0-.4 0-.5.6-.4.5-1.3 1.1-1.7.7-.4-.1-1.4.5-1.9.1-.1.2-.4.3-.6.1-.7-.3-1.4.4-2 0 .2-.2 0-.3-.1zm27.7 25.5h-.2c-.6-.6-1.2-.7-1.8-.2-.2.1-.4.2-.6.2h-1.9c-.2 0-.5-.1-.6.2-.3.5-1 .1-1.3.4-.4.4-.8.4-1.3.4-.4.1-.7.6-1.2.5s-.7.6-1.2.5l-.7 1.3c.5.3.3.6-.1.8l.3.3c.3 0 .7.1.9-.1.3-.4.8-.3 1.2-.6s.9-.5 1.4-.7c.4-.1.9.1 1.2-.1.4-.3.8-.5 1.3-.5.3 0 .5-.4.8-.4.6-.1 1.1.1 1.7 0 .5-.1.9-.6 1.5-.5.8.2.8-.5 1-.9 0-.3.2-.5-.4-.6zm3.3-8s-.1-.2-.2-.2h-7.4c-.8 0-1.6-.1-2.4 0s-1.3-.7-2.2-.5c-1.1.2-2.2 0-3.4 0-.1 0-.1.1-.2.2v.2c.3.2.5.7.9.6.7 0 1.4.1 2.2 0s1.5.3 2.2.5c.8.1 1.6 0 2.4 0 .4 0 .9.1 1.1-.1.5-.5 1-.3 1.5-.4h5.1c.2 0 .3-.2.4-.3z"/><path d="M504.5 268.1c0 .6.7 1 .5 1.7-.1.5 0 1.1 0 1.7h.1v2.4c0 .1.2.2.4.2.5 0 .6-.4.9-.7 0-.9.3-1.9-.2-2.7-.5-.7.2-1.6-.6-2.1-.2-.1-.1-.6 0-.9.1-.8-.2-1.3-.8-1.8-.4-.3.1-.4.2-.5.3-.4.1-.8.1-1.1 0-.1-.1-.1-.2-.2 0 0-.2 0-.2.1-.1.8-1.3 1.5-.2 2.4v1.5zm.1 22.2c.6 0 1.3-.1 1.7.5h1.4c.6-.1 1 .2 1.5.5.4.2.9 0 1.4 0h2.2c.5 0 1 .2 1.3-.2-.4-.4-.6-.9-1.3-.8-.4.1-.8 0-1.2 0-.9 0-1.8-.1-2.6 0-.6.1-1-.3-1.5-.5-.6-.2-1.2-.1-1.9-.1-.5-.7-1.2-.3-1.8-.4-.1 0-.1.1-.2.1-.1.1-.1.2.1.3.4.3.5.6.9.6zm7.4 2.9c-.7 0-1.2-.4-1.7-.5-.7-.1-1.4 0-2.2 0-.7-.8-1.6-.4-2.4-.4-.1 0-.2.1-.2.2.1.1.2.3.3.3.6.1 1.2-.2 1.8.4.2.2.8.2 1.1.1.5-.1.7.5 1.2.5 1.2 0 2.5-.4 3.6.5h3.6c.2 0 .4-.3.3-.5a.76.76 0 0 0-.2-.4c-.1-.1-.3 0-.5 0-1.5-.2-3.1-.3-4.7-.2zm22.8 6.7h-1.2c-.1 0-.2.2-.3.3-.1.2 0 .5.2.6.4.1.8 0 1.2 0a4.67 4.67 0 0 1 1 .5c.4.1 1-.2 1.3.2.4.5 1 .1 1.3.3.6.6 1.3.4 2 .4.1 0 .1-.1.2-.2l-.1-.2c-.5 0-.8-.5-1.2-.5-.5 0-.7-.7-1.2-.5s-.8-.3-1.2-.5c-1.1-.4-1.1-.4-2-.4z"/><path d="M513.6 306.1c-.1.1-.3.1-.4.2l-4.2 4.2c-.1.1-.1.2-.2.3v.1c.2 0 .5.1.7 0 .5-.3.7-1 1.5-1 .1 0 .2-.1.2-.2 0-.4 0-.8.6-.8.7-.8 1.9-1 2.5-1.9.2-.2.3-.3 0-.5-.2-.1-.3-.4-.7-.4zM494 273.3c-.9-.8-.4-1.9-.5-2.9-.1-1.6 0-3.2 0-4.8 0-.1-.2-.1-.3-.2 0 0-.2.1-.2.2v5.5c0 .6.1 1.3 0 1.9s.4 1 .5 1.5 0 1.1 0 1.7c0 .1.2.1.3.2 0 0 .2-.1.2-.2v-2.9zm33.8 19.9c-.1 0-.2.2-.2.4-.1.2 0 .6.2.6.6.1 1.3 0 1.9 0h1.7c.4 0 .5-.3.7-.5.1-.1.1-.2.1-.3 0 0-.1-.1-.2-.1-1.3-.1-2.7-.1-4.2-.1zm-22.5-9.7c-.4.5-1.2.4-1.5 1 0 .1-.1.1-.2.2v.2c0 .1.1.1.2.1.5.1.7-.3 1-.5.5-.2 1-.3 1.4-.6.5-.4.9-.9 1.4-1.3.3-.3.2-.6.2-.9v-.2l-.3-.3c-.1.1-.2.1-.2.2 0 .5-.3 1-.7 1.1-.5.1-.9.5-1.3 1z"/><path d="M494.9 268.9v1.4c0 .1.2.2.3.3 0 0 .2-.1.2-.2-.3-.6.8-.8.6-1.5-.1-.2-.1-.5-.2-.6-.5-.4-.3-.9-.3-1.3v-.2c-.1.1-.3.1-.4.2-.6.5-.6.6-.3 1.3.1.2.1.3.1.6zm14 42h0c-.1.2-.1.1 0 0z"/><path d="M506.2 313.3c0 .1 0 .1 0 0h0zm2.7-2.4z"/><path d="M508.4 310.9c-.5.1-.9.4-1.4.7-.4.3-.7.8-1 1.2-.1.1 0 .4.1.4.1.1.1.1.1.2v-.1c.7-.8 1.8-1 2.6-2.4h-.4zm.5-.1c0 .1 0 .1 0 0 0 .1 0 .1 0 0zm-13.8-46.1c.2.2.3.5.3.8v.9c0 .2 0 .3.2.2.1-.1.2-.2.2-.4v-1.9c0-.1 0-.7-.1-1.4 0-.1-.1-.1-.2-.2h-.1s.1.1-.1.2c-.3.3-.8.6-.1 1 .3.3-.4.5-.1.8zm.5-1.8s-.1 0 0 0h0zm-.9 51.9h-.4c-.2.1-.2.2-.1.3.5.4.8.9 1 1.5.1.2.3.3.5.5 0 0 .1 0 .2-.1.1 0 .1-.1.1-.2-.3-.7-.6-1.5-1.3-2zm-.2-37.7s-.2-.1-.3-.2c0 0-.1.1-.1.2v.2c0 .4-.1.8 0 1.2.1.3.6.5.5 1a1.44 1.44 0 0 0 .3.2s.1-.1.1-.2v-.5c0-.3.1-.7 0-.9-.2-.4-.7-.5-.5-1zm6.2 26.9c0-.1-.2-.1-.3-.2 0 0-.1.1-.1.2 0 .8.1 1.7-.8 2.2-.2.1-.2.2 0 .3.1.1.3.1.4.1.5-.3.9-.6.8-1.2V304zm-1.9 12.2h-.7l-.3.3c-.1.5.3.6.5.9.1.2.2.2.3 0s.4-.3.5-.5c.3-.3.2-.7-.3-.7zm5.3-35.8c.3-.3.6-.5.8-.9.2-.2-.2-.4-.3-.5s-.2-.5-.5-.1c-.2.3-.7.5-.5.9v.3a.76.76 0 0 0 .2.4c.1 0 .2 0 .3-.1zm-.3 2.6h.3c.6-.1.8-.7 1.2-1 .2-.1.2-.3.1-.3-.2-.1-.5-.1-.6 0-.4.3-.7.7-1 1-.2.1-.2.2 0 .3zm40.6 20.2c.5-.1.9-.6.9-1.1 0-.1-.2-.2-.2-.3-.2.5-.8.4-1.1.7-.1.1 0 .4 0 .6 0 .1.3.1.4.1zm-25.2-8.6l.3-.3c.1-.2.3-.3.4-.5 0-.1 0-.3-.1-.4s-.3-.1-.4-.2c-.3-.1-.4.1-.5.4v.5c0 .1.1.4.3.5zm24.3 10.1c.1 0 .2-.1.4-.2-.4-.4-.7-.8-1.1-1.1 0 0-.2.1-.3.2v.2c.1.5.4.8 1 .9zM496.6 261c.1.1.3 0 .5 0h.2c.1 0 .3-.1.4-.1-.1-.1-.1-.2-.2-.3-.2-.2-.3-.4-.5-.5-.1-.1-.4-.1-.4 0-.1.2-.2.4-.2.6 0 .1.1.2.2.3zm1 19.7H496c-.1 0-.1.1-.2.2v.1s.1-.1.2 0c.4.4.4.4 1 .1.2-.1.4-.1.6-.2.1 0 .1-.1.1-.2.1.1 0 0-.1 0zm-1.7.3s0 .1 0 0h0zm11.8-3.2c.1 0 .2-.4.3-.5 0-.3 0-.5-.1-.7 0-.1-.2-.2-.4-.2s-.3.1-.4.1c-.3.3.2 1.3.6 1.3zm6.6 7.1l-.5-.5c-.5-.5-1.1-.5-1.6 0-.4.4-.8.7-1.4.6-.5-.1-1 0-1.4 0-.3 0-.4.2-.4.5 0 .5-.5.6-.7.9-.1.2-1-.2-.5.5.2.3 0 1.1.7 1a.76.76 0 0 1 .4.2c.8.5 1.6.9 2.6.8h1.9c.8 0 1.3-.5 1.3-1.2v-1.9c0-.5-.2-.7-.4-.9zm-5-18.8c0-.1-.2-.1-.3-.2 0 0-.1.1-.1.2v1.9c.9.7.4 1.8.5 2.7.1 2 0 4 0 6 0 .1.2.1.3.2l.2-.2v-8.6c-.7-.6-.5-1.4-.6-2zm.2 16.8c.1.1.3.1.4.1.5 0 .6-.6 1.2-.5.2 0 .1-.4.2-.6.3-.4.6-.7.9-1l-.5-.5c-.2-.3-.4-.1-.5.1s-.2.2-.3.1c-.2-.2-.4-.6-.6 0-.1.2-.1.4-.2.6-.2.5-.5.9-.7 1.4-.1 0 0 .2.1.3zm23.4.2h-.7c-.5 0-.4 0-.4.6.1 1.1.3 2.2-.4 3.1-.1.1 0 .3.1.4.1.2.2.1.3-.1.4-.4 1-1.7 1-2.2s.2-.9.5-1.2c.2-.2-.1-.6-.4-.6zm-24.5-7.7v-2.6c0-.1-.1-.2-.2-.2s-.3.2-.3.2c.2.7-.2 1.2-.7 1.6-.6-.3-.8.8-1.5.5 0 0-.2.1-.2.2.1.1.1.3.2.3.7 0 1.4-.1 2 .5.3.2.7-.2.7-.5zm8 7.3c-.2-.2-.4-.4-.7-.5-.2-.1-.3.4 0 .8.2.3.3.5.3.8v5.7c0 .1.2.2.3.2 0 0 .2-.1.2-.2v-6.2c0-.1 0-.4-.1-.6zm30.2-10.2c-.3-.4-.7-.6-1.2-.5-.7.1-.9.8-1.4 1.2 0 0 .3.3.6.2.8.3 1.4-.4 2.1-.6.1 0 0-.1-.1-.3zm-28.6 8.6l-.7-1.3-.7.7 1.2 1.1s.1-.1.2-.1c0-.1.1-.1.1-.2-.1-.1-.1-.2-.1-.2zm21.1-11.7c-.6-.5-.5-1.1-.5-1.7v-6c0-.5-.1-.7-.7-.7-.2 0-.8-1.5-.8-1.8.1-.6-.3-1-.5-1.5-.6-1.2-1-2.5-2.1-3.4-.2-.7-.8-1.1-1.1-1.7-.2-.3-.3-.7-.5-1-.1-.2-.1-.5-.4-.8-.6-.7-1.3-1-2.1-1.3-.2-.1-.5-.2-.5-.4 0-.4-.2-.6-.5-.8-.5-.3-1.1-.5-1.5-1-.1-.1-.2-.2-.4-.2-.5 0-.8-.7-1.5-.5-.4.1-.5-.2-.5-.6-.1-.6-.4-.2-.6 0-.3.3-.8 0-1.1.2-.2.1-.3.6-.7.2-.3-.2-.6-.4-1-.5 0-.8-.2-.7-.7-.3-.2.2-.6.1-.8.4s-.6.2-.9.2c-.4 0-.5.4-.7.5-.4-.7-.8-.2-1 .1-.3.5-.8.4-1.3.4-.7 0-1.2.4-1.3 1.1 0 .4-.1.8-.4 1-.4.3-.6.7-1.1.8-.7.2-.9.7-.9 1.4 0 1-.2 1.1-1.4 1.4-.5.1-.9.4-1.4.6-.2 1-.9 1.5-1.8 1.9-.5.2-.7.8-.7 1.4 0 .4.2.7.3 1.1.2.6.9 1.1.6 1.9s.5 1.4.6 2.1c.5.2.2.9.7 1.2.4.3.2.8.1 1.1-.1.6.5.7.5 1.2 0 .7.1 1.4 0 2.2s.4 1.5.5 2.2l.1 5c0 .4-.2.5-.4.8-.3.4-.1.8.4.8h3.1c.4.4.8.9 1.2 1.2.6.4.4 1.2 1 1.5.1 0 .1.1.2.2l.2-.1c0-1 .5-2-.3-2.9-.1-.1-.1-.5.1-.6.2-.3.4-.5.4-.8v-4.6c-.1-.8.7-1.2.5-2a.76.76 0 0 1 .2-.4c.6-.5 0-1.5.8-1.8-.3-1.1.4-1.8 1-2.5-.1-.7.8-.8 1-1.5.2-.9 1.1-1.3 1.7-1.9.2-.2.8-.1 1.2 0 .3 0 .4-.3.6-.3.8-.3 1.5-.7 2.4-.7.7 0 1.3.5 2 .5s1 .7 1.7.6c.9-.1.5.9 1.1 1.3 1 .6 1.2 2 2.2 2.7.1.1.1.3.1.4-.2.7.4 1.3.5 2s0 1.4 0 2.2c0 .5-.1 1 .4 1.3-.1.1-.1.2-.2.3-.3.3-.3.6-.1.8s.4.5.3.8v1.4c0 .5-.1 1 0 1.4.1.6-.5.8-.5 1.2 0 .5.2 1-.2 1.4-.5.5-.2 1.1-.3 1.6-.1.2-.3.4-.4.6-.1.4-.1.7-.2 1.1-.6.2-.4.7-.4 1.1 0 .3.1.5.4.5h1.4c.1 0 .4 0 .4.1.4.5 1 .7 1.1 1.5 0 .1.2.2.2.4a.76.76 0 0 0 .2-.4c-.2-.9.4-1.6.6-2.4.1-.2.3-.3.3-.6.1-.7-.3-1.6.4-2.2-.7-.4 0-.7 0-1-.1-.8.5-1.5.5-2.2 0-.6.7-.9.6-1.5-.1-.5 0-1.1 0-1.7s-.2-1.2.4-1.8c.3-.4.3-1 .2-1.2z"/><path d="M532.9 277.5c0-.5.2-1.1-.2-1.6l-1.5 1.4c-.3.2-1.1-.1-1.1-.4v-6.7c0-.4.4-.5.4-.8 0-.2-.5-.4-.4-.8.1-.8-.2-1.6.5-2.2.1-.1 0-.4-.2-.6-.5-.6-.4-1.3 0-1.9.2-.5.5-.9.7-1.4 0-.1-.1-.4-.1-.4-.7-.1-1-.6-1.5-1-.2-.2-.5-.6-.7-.5-.6.1-1-.5-1.5-.5-.6 0-1.3-.3-1.8.2-.6.5-1.3 0-1.8.4-.7.5-1.5.6-2.2 1.2-.2.2-.4.4-.5.7-.6 1.6-1.8 2.9-2 4.7-.7.4 0 1.5-.8 1.8-.1.7.2 1.4-.2 2.1-.5.7-.2 1.5-.3 2.3-.1 1.1 0 2.2 0 3.4v1.9c.5.3.4.8.5 1.3.1.4.4.8.6 1.2s.4.7.3 1.1c0 .3.1.4.3.6.4.3 0 .4-.2.4-.3.1-.6 0-.6-.5 0-.1-.1-.4-.2-.4-.3 0-.3.2-.3.5 0 .2-.1.6.1.7.5.3.4.8.4 1.3v1.4c0 .4-.8.7 0 1.1-.4.4-.5.9-.4 1.5 0 .7.5 1.2 1.1 1.2h6.2c.1 0 .1-.1.2-.1.2-.1.1-.2-.1-.3-.2-.2-.5-.4-.7-.7-.4-.4-.4-.4.2-.9.3-.2.5-.6.9-.8.1-.1.5-.1.6 0 .4.3.7.7 1 1 .1.1.1.3.1.4 0 .2-.2.3-.5.4-.4.1-.6.4-.5.6a.55.55 0 0 0 .5.3h5.3c.1 0 .4-.2.4-.2-.1-.3-.3-.3-.5-.3h-.2c-.8.2-1.1-.3-1.6-.7-.4-.4-.5-.8-.5-1.3 0-.6 0-1.2.5-1.7.2-.2-.1-.5-.5-.6-.2-.1-.5-.1-.4-.3.4-.5.5-1.3 1.2-1.7.3-.2.5-.5.7-.9.2-.5.2-1.2.9-1.4v-1.2c0-.2-.1-.4 0-.5.5-.7.4-1.2.4-1.8zm-6.2-16.3c0-.1.1-.1.2-.1h.7l1.4.7v.2c0 .1-.1.1-.2.1-.8.2-1.4-.4-2.1-.6v-.3zm-7.3 13.5c1-1 .3-2.3.5-3.4 0 0-.4-.1-.6-.2-.3-.1-.4-.5-.3-.7s.5-.3.8-.1l.3.3a.55.55 0 0 0 .3-.5c0-.3.1-.6-.2-.9-.3-.2-.2-.6-.2-.9-.1-.5.6-.7.5-1.2-.1-.4.1-.8.1-1.1 0-.1.1-.1.2-.2l1.2-2.4v-.2c0-.1.1-.2.2-.2.3.1.5.5 1 .4.1 0 .2.2.3.3v4.5c0 .4 0 .8-.4 1.1-.1.1-.1.5 0 .6.7.8.2 1.8.4 2.7-.9.9-.3 2.1-.5 3.1 0 .1-.1.3-.1.4-.1 0-.1.1-.2.1h-1.9c-1 .1-1.6-.7-1.4-1.5zm1.7 2.6c-.5-.1-.2-.4-.1-.4.2-.1.4-.1.5-.1h.9c.2 0 .4.2.4.5 0 .4.1.9 0 1.2-.2.3-.5.6-.5 1 0 .1-.1.1-.2.2 0 0-.2 0-.2-.1 0-.6-.7-1-.6-1.7.1-.2-.1-.5-.2-.6zm-1.6.8c-.2-.1-.1-.6-.1-.9s.5-.6.7-.4c.3.3.9.3.8.9-.1.4-.1.8 0 1.2.1.3.5.5.5 1-.1.5-.1 1.1.5 1.5.1 0 0 .3 0 .5 0 0-.1.1-.2.1h-.2c-.2-.3-.5-.5-.7-.9-.2-.5-.4-1.1-.8-1.6-.3-.3.2-1-.5-1.4zm1.9 7.4c-.7-.2-1.1-.8-1.4-1.4-.1-.1 0-.3.1-.4.1-.2.2-.1.3 0 .3.3.5.6.8.8.2.2.5.4.7.7v.2c-.2.1-.4.1-.5.1zm3.3 1.1l-.3.3c-.3-.5-.8-.4-1.2-.5-.4 0-.7-.6-1.2-.6 0 0-.1-.3-.2-.4h.2c.4.1.9-.2 1.3.3.2.3.6.1.9.2.4.1.6.3.5.7zm4.2-.8c-.6.1-1.1.8-1.8.6-.1-.1-.3-.1-.4-.2v-.2c.7-.2 1.2-.9 2.1-.6.1 0 .1.1.2.2 0 .1 0 .2-.1.2zm-.5-2.2h-3.9c-1 0-1.3-.8-1.8-1.3-.1-.1 0-.4.1-.4.3-.3.4-.6.4-1 0-.7.1-1.4 0-2.1s.6-1 .6-1.7c0-.2.2-.1.3.1.2.1.4.3.6.3h3.1c.6 0 1.1.6 1.1 1.2v2.4c-.8.5-.1 1.4-.5 2.5zm.6-8.6c-.1.3 0 .6 0 1 0 .3-.1.4-.4.4h-3.8c-.5 0-1-.6-1-1.1v-3.6c0-.7.6-1.2.6-1.9 0 0 .3-.1.4-.1.3 0 .4-.2.5-.4 0-.3-.1-.5-.3-.5-.2-.1-.6 0-.6-.2.1-.6-.5-.7-.5-1.2 0-.9.1-1.8 0-2.6-.1-.9.4-1.3.9-1.8.2-.2.5-.4.8-.4h2.6c1 0 1.5.4 1.5 1.3v5c0 .1-.1.1-.1.3l-2.5.1c-.1 0-.2.1-.2.2.1.1.2.3.3.3h1.7c.3 0 .9.6.9 1v3.4c-.3.1-.7.4-.8.8zm2.5 4.7c-.2 0-.6.2-.5.3.8.7-.6 1.2-.1 1.8l-1.2 1.3c-.4-.2-.3-.5-.3-.7v-3.8c.1-.5 1.4-1.1 1.7-.6.3.4.5.9.6 1.4.3.1.1.3-.2.3zm.7-14.5c.1 0 .1-.1.1-.2 0-.2.1-.4 0-.4-.5-.3-.4-.8-.6-1.1h-.2c-.1.1-.1.1-.1.2-.1.7 0 1.2.6 1.6.1 0 .2 0 .2-.1zm-18.8 13.6c-.3-.3-.5-.6-.9-.5-.1 0-.2.3-.2.3l1.1 1.2c.4-.4.4-.7 0-1zm-5 .6c.1.1.2.2.2.4.3-.4.8-.5.7-1.1 0-.1-.2-.2-.2-.4-.2.3-.8.5-.7 1.1zm-5.8 22.2c0-.1-.1-.2-.2-.2s-.3.1-.3.2v1.4c0 .1.1.2.2.2s.3-.1.3-.2v-1.4zm30.9-12.8c.1 0 .3.1.4.1h.5c.2 0 .4-.2.4-.5v-.2c-.1-.2-.3-.2-.5 0s-.5.2-.8.3c-.1 0-.1.1-.2.2.1 0 .2 0 .2.1zM64.3 268.5c-.1-.3-.3-.5-.4-.7 0-.1.1-.3.1-.4.4-.8.5-1.3.1-1.9-.2-.3-.3-.5-.3-.8v-2.9c0-.5-.1-.7-.7-.7-.2 0-.4-.3-.3-.5.2-.7-.7-1-.5-1.7.3-.9-.5-1.2-.9-1.8-.1-.1-.1-.5 0-.7.1-.5-.6-.7-.5-1.2 0-.2-.4-.6-.6-.6-.6-.1-.7-.3-.9-.8a4.67 4.67 0 0 0-.5-1c-.2-.5-.9-.6-.9-1.3 0-.1-.1-.1-.1-.2-.3-.3-.6-.9-1-1-.5-.1-.7-.6-1.2-.6-.9 0-.3-1-.9-1.2-.5-.2-1.2-.4-1.5-1-.1-.2-.4-.1-.6-.3-.6-.5-1.4-.6-1.9-1.3-.1-.2-.2-.2-.3 0-.3.5-.9.1-1.3.4-.3.3-.5.4-.9.1-.3-.3-.9-.2-.8-.9 0-.2-.2-.2-.3-.1-.6.5-1.5.7-2.2 1.2-.2.1-.5.2-.6.1-.3-.3-.5-.5-.9 0-.3.4-.7.7-1.2.6-.9-.3-1 .4-1.2.9l-.3.6c0 .1-.8 1-.9 1-.2.2-.3.2-.6.3-.7.2-1 .7-.9 1.4v.2c0 .5-.4 1.2-.9 1.2-.6 0-1 .2-1.4.6-.8.8-1.4 1.6-2.5 2.1-.2.1-.4.3-.4.5 0 .5-.2 1.1.1 1.4.3.4.3.9.6 1.2.5.5 0 1.1.3 1.6.2.4.3.9.6 1.2.6.4 0 1.2.5 1.5.6.4-.1 1.3.7 1.7 0 .4.1.8.1 1.1v3.3c.7.5.4 1.3.4 2v5c0 .2 0 .5.1.7s.2.2.3 0 .3-.3.6-.3h2.1c.6.6 1.1 1.3 1.7 1.7.5.3.1 1.2.9 1.2v-7.5c0-.1.2-.1.3-.2 0 0 .2.1.2.2v3.6c0 .6.1 1.3 0 1.9-.1.7.6 1.1.5 1.7-.1.8.4 1.4.7 2.1.2.5.6 1 .8 1.6 0 .1 0 .1-.1.2 0 .1-.2.1-.2.1l-.7-.7c-.1-.1-.2-.1-.3-.2-.1.2-.2.5-.1.6.2.3.5.6.5 1v3.3c0 .4-.2.5-.3.8-.4.9.1 1.8 1.1 1.8h6c.3 0 .4-.1.5-.4.1-.2 0-.5-.3-.6h-.2c-.4 0-.5-.4-.7-.5s-.2-.3-.1-.3c.7-.1 1-.6 1.5-1 .1-.1.5-.1.6.1.4.3.7.7 1 1 .2.2 0 .6-.4.8-.3.1-.5.5-.4.7s.3.3.6.3H58a.76.76 0 0 0 .4-.2c-.1-.1-.2-.3-.3-.3-.8.2-1.3-.4-1.9-.6s-.8-1-.6-1.6c.8-.4.1-1.4.8-1.8-.1-.1-.1-.3-.2-.3h-.7a.76.76 0 0 1-.4-.2c.1-.1.1-.2.2-.3.4-.4.8-.7.6-1.4-.1.1-.3 0-.4 0s-.4-.1-.4-.1c-.1-.5-.1-1.1-.1-1.1 0-.9-.1-1.4 0-1.9.1-.7.6-1.2.5-1.9 0-.1 1.1-.3 1.1-.2.2.6.7 1 .7 1.6 0 .2-.2.3-.5.3-.5 0-.5.2-.2.5.2.2.3.5.2.6-.3.3-.4.8-.6 1.2-.2.3-.4.5-.3.8v.2c.5 0 .8-.4.9-.8.1-.6.4-.9 1-1.1v-.2c0-.5.1-1 0-1.4-.2-.7.7-.8.5-1.5-.2-.5 0-.9.3-1.3v-.7c0-.1 0-.1-.1-.2-.3.4-.8.4-1.2.6 0 1.3-1 .7-1.6.8-.3 0-.4-.1-.4-.4v-3.1c0-.9.1-1.8 0-2.6-.2-.8.6-1.1.5-1.7-.1-.7 0-1.4 0-2.2v-3.8c0-.1.1-.3.1-.4.2-.7.2-1.3-.3-1.5-.5-.1-.8-.4-1.1-.7-.2-.2-.3-.4-.6-.3-.6.2-.9-.5-1.5-.5H51c-.4 0-.7.6-1.2.5-.6-.2-1 .3-1.5.4s-.7.7-1.2.5c-.1 0-.3.2-.3.3.1.8-.8.9-1 1.5-.3.9-.8 1.7-1.3 2.6-.1.1-.2.3-.1.4.2.6-.5.9-.5 1.5 0 .5.2 1.1-.4 1.5-.1.5-.1 1.1-.2 1.6 0 .1-.1.1-.2.2l-.2-.1c0-1-.4-2 .3-2.9.2-.3-.1-1.1.1-1.4.5-.6.5-1.1.4-1.7 0-.3.1-.5.3-.6.5-.3.6-.9.8-1.3s.6-.6.8-1.1c.4-1.1 1.5-1.5 2.5-1.8.3-.1.6 0 .9-.3.4-.3.9-.6 1.4-.7.7-.1 1.4 0 2.2 0 .3.8 1.2.2 1.6.7.3.4.7.3 1.1.3.1 0 .4.1.4.2.1 1 1 1.4 1.6 2 .5.5.5 1.3 1.2 1.7.1.1.2.2.2.4.1.5-.2 1.1.3 1.6.4.4.1.9.2 1.4.1.7-.4 1.6.5 2.2v2.4c0 .8-.1 1.6 0 2.4.1.7-.3 1.2-.5 1.7-.1.5 0 1.1 0 1.7-.7.4-.3 1.2-.5 1.7-.3.6-.5 1.1-.5 1.7 0 .1-.1.1-.2.2h-.2c0 .1-.1.2-.1.2 0 .3-.1.7.4.7h1c.6-.1 1 .2 1.4.6.3.3.6.7.7 1.2 0 .1.1.1.2.1s.2-.1.2-.2c0-.4.1-.8 0-1.2-.1-.5.4-.6.5-1 .4-1 .5-1 .4-2 0-.5.1-.9.5-1.2V277c0-.2-.1-.5 0-.7.3-.5.5-.9.5-1.5 0-.2.4-.5.4-.8 0-.4.4-.5.5-.8 0-.1-.4-.3-.4-.5v-1.9c.6-.6.7-1.2.1-1.8-.1 0 .2-.4.2-.5zM45 277.8c-.2-.1-.4-.3-.1-.5.2-.1.3-.4.5-.5.5-.1 1 0 1.4 0h.7c.4 0 .4.1.5.6.2.9-.5 1.4-.6 2.1 0 .1-.3.1-.3-.1 0-.7-.8-1.2-.5-1.9 0 0-.1-.2-.2-.2s-.3.1-.3.2v1.5c.7.4.2 1.2.7 1.6.4.3.2.7.2 1.1 0 .1-.2.2-.2.4l-.2-.2c-.7-.8-1.4-2.5-1.5-3.4.1-.2.1-.5-.1-.7zm5 8.8l-.3.3c-.3-.7-1.1-.3-1.7-.6-.5-.4-1.1-.7-1.8-.9-.3-.1-.6-.6-.9-.8-.2-.2-.2-.4-.2-.6 0-.1.1-.2.1-.2.2 0 .1-.1.1-.1l.1.1c.2.2.5.4.7.7.7.9 1.9 1 2.7 1.7.2.2.6 0 .9.1.3-.2.3.1.3.3zm4.2-.8c0 .1-.1.2-.2.2-.6-.1-1 .7-1.7.5a.76.76 0 0 1-.4-.2v-.2c.7-.2 1.2-.9 2.1-.7.1 0 .1.1.2.1 0 .2.1.2 0 .3zm.1-4.8c-.1.7-.6 1.4-.5 2.2 0 .2-.2.4-.5.3h-1.9c-.5 0-1-.1-1.4 0-1 .2-1.3-.7-1.9-1.2-.2-.2 0 .1.1-.1.5-.5.3-1 .3-1.6s.1-1.3 0-1.9c-.1-.7.6-1.1.6-1.7 0-.2.5-.3.6-.2.4.4.9.5 1.5.5h2.1c.5 0 1 .6 1 1.1 0 .9.1 1.8 0 2.6zM52 261.1c0-.1.1-.1.2-.1.8-.2 1.4.4 2.1.7v.2c0 .1-.1.1-.2.1h-.7l-1.4-.7v-.2zm-2.9 3.1c.1-.5.6-1 .9-1.5.1-.1.2-.3.4-.3H54c.3 0 .9.7.9 1v5.7h-2.5c-.1 0-.2.2-.3.2a.76.76 0 0 0 .4.2h1.4c.5 0 1 .6 1 1v4.8c0 .3-.7.9-1 .9h-3.8c-.3 0-1-.6-1-.9 0-.6-.2-1.3.4-1.7-.6-.4-.5-1.1-.4-1.7 0-.3.4-.7.4-1 .1-.4 0-.8.1-1.2 0-.1.2-.2.4-.2h.7c.2-.1.4-.3.3-.5 0-.3-.2-.4-.4-.4-.3 0-.7.2-.9-.1-.2-.4-.5-.8-.6-1.2-.1-1-.2-2 0-3.1zm-4.4 6.4a.76.76 0 0 1 .2-.4c.1.1.3.1.3.2.1.2.3.2.3 0 .2-.4.2-.9-.1-1.3-.1-.2-.3-.5-.2-.6.5-.5.4-1.1.5-1.7s.7-1 .5-1.7c0 0 .1-.1.1-.2.4-.5.5-1.1.8-1.6v-.2c.1-.2.2-.2.3-.1.2.2.3.4.6.4.3-.1.5.1.5.4v5c0 .2-.3.4-.4.6-.1.1-.1.4-.1.4.7.7.3 1.6.5 2.4.1.6-.5.8-.5 1.2v1.4c0 .5.1.9-.2 1.4h-2.5c-.3-.5-.1-1.1-.2-1.6v-1.7c0-.6.2-1.3-.5-1.7 0 0 .1-.4.1-.6z"/><path d="M58.5 276.1v.7l.2-.2c0-.1-.1-.4-.2-.5zm1.3 22.2c.3.2.6.1.8-.1-.5-.9-1.6-1.3-1.9-2.4 0-.1-.2-.2-.3-.3l-2.3-.1c-.1-.1-.2-.1-.3-.2-.3-.3-.6-.3-.8-.1-.4.4-.8.5-1.2 0-.1-.2-.2-.2-.3 0-.4.6-.4.7-.8.2-.4-.4-.6-.3-.9 0-.1.1-.5 0-.6-.1-.6-.6-1.3-.4-1.9-.2-.3.1-.5.3-.8.3H36.1c-.3 0-.6-.2-.8-.3-.6-.4-1.4-.3-2.1-.1-.5.1-.8.9-1.5 1-.1 0-.2.3-.2.4-.1.6-.6.7-.9 1.1-.1.1-.1.2.1.3h.2c.6 0 .7-.6 1.1-.8s.3.1.4.3a2.27 2.27 0 0 0 .1.4c.7.1 1 .6 1.5 1 .6.5.9 1.1.8 1.8-.1.6.2.6.7.6.2 0 .3.3.5.5.3.3.3.5.1.8 0 .1-.1.1-.2.2-.1.2-.8.5-1.1.4-.3 0-.5.1-.6.3s0 .5 0 .7v1c-.1.6-1.2.3-1 1.2 0 .2-.4.2-.6.2h-.5c-.2 0-.3.5-.2.8 0 .1.1.1.2.1.6-.9.9 0 1.2.3.4.3.7.3 1 0 .1-.2.2-.2.3-.1.4.5.7.5 1.2 0l2.7-2.7c.5-.4.6-.9.6-1.5 0-.3-.1-.7 0-.9.2-.5.5-.9.8-1.3.7-.1 1.2-.9 2.1-.2a1.65 1.65 0 0 0 1.9 0c.4-.3.5-.8 1.2-.7.3-.3.5-.6 1-.5.6.2.7-.6 1.2-.5s.8-.4 1.2-.5c.7-.1 1.4.1 1.9-.5h5.1c.4 0 .8-.1 1-.4.3-.6 1-.4 1.4-.8.3-.3.6-.3.8 0 .3.7.6 1.1 1.1 1.4z"/><path d="M27.4 268c.1-.5.1-1.1-.5-1.5-.1-.1-.1-.4 0-.4.3-.3.5-.4.1-.9-.3-.3-.6-.9-.6-1.4 0-.7-.6-1-.6-1.7s-.8-1.1-1.3-1.6c-.3-.3-.6-.6-.8-.9-.3.2-.4.6-.1.8.4.4.5.7.1 1.2-.4.4-.3.5.4.9.2.1.4.2.4.5a.76.76 0 0 0 .2.4c.9.6 1.2 1.2 1.2 1.8v1.4c0 .6.3.7.7.6 0 0 .2.3.1.3-.6.5-.5 1.1-.1 1.6.2.2.2.4.2.7v3.1c0 .5-.1 1 0 1.4.2.6-.4 1-.5 1.5-.2 1.6-.5 2.1-1.4 3-.5.5-1 .2-1.6.3s-.3-.7-.6-.8c-.4-.2-.2-.8-.5-1-.4-.3-.4-.8-.6-1.2-.3-.4-.2-1.1-.2-1.6 0-.6-.1-1.1-.5-1.5v-1.5c0-.3-.1-.5-.3-.5-.2-.1-.6 0-.6.2 0 .7-.3 1.5.1 2.1.4.5.2 1 .3 1.6.1.5.7.9.5 1.5-.2.8.3 1.5.6 2.2.1.3.4.4.4.8 0 .2.2.4.5.3h1.4c.5 0 .4.3.4.7v.2c0 .3.1.5.3.5.2.1.5 0 .6-.2.6-.8 1.1-1.8 1.4-2.8.2-.5-.2-1.1.4-1.5 0-.5 0-1.1.1-1.6.1-.6.7-1 .5-1.7-.1-.6 0-1.3 0-1.9s-.1-1.2 0-1.7c.7-.7-.2-1.1-.1-1.7zm5.8 19.4c0 .3.2.3.4.5l1.8.9c.6.3 1.4.1 2.1.1h.2c.4.5.6.4 1.1 0 .2-.2.7.1.9-.1.4-.2.2-.7.2-1.1v-1.4c0-.2.3-.4.5-.6-.4-.4-.9-.8-1.4-1.2-.5-.5-1.2-.6-1.6 0-.5.6-1 .7-1.7.6h-.9l-1.5 1.5c-.2.2-.1.5-.1.8zm21.9 12c-.4-.5-1-.7-1.4-.4-.4.2-.8.5-1.3.4h-1.2c-.4 0-.9-.2-1.3.3-.2.3-.7.1-1 .5-.1.1-.4.2-.6.1-.9-.1-1.5.7-2.4.6-.2.4-.7.3-1 .5-.4.3-.1.7-.1 1.1s-.1.6-.4.8c-.1.1-.1.3.1.3.4 0 .8.2 1.1-.1.3-.4.8-.3 1.2-.6.3-.3.9-.5 1.4-.6.6-.1 1.2-.1 1.7-.5.3-.2.8-.1 1.3-.4.4-.3 1.1-.1 1.6-.1.6-.1 1-.7 1.7-.5.3.1.6.1.9 0 .2 0 .4-.2.3-.5 0-.5.2-1-.6-.9zm-1.5-8.2h-2.4c-.9 0-1.8-.1-2.6 0s-1.3-.7-2.2-.5c-.8.2-1.6 0-2.4 0h-.5c-.2.1-.3.3-.3.6 0 .1.1.4.2.4h1.9c.6 0 1.1-.1 1.7 0s1 .6 1.7.5c.5-.1 1 0 1.4 0 .5 0 1-.1 1.4 0 .6.1.7-.5 1.2-.5h5.5c.1 0 .1-.2.2-.3 0 0-.1-.1-.2-.1h-2.4c-.8 0-1.4-.1-2.2-.1zM29.8 266c.2 1-.4 2.1.5 2.9.1.1 0 .5 0 .7v3.8c0 .5.3.5.6.5.7 0 .8-.1.8-.5v-3.1c-.8-.5-.1-1.4-.5-1.9-.6-.7-.3-1.5-.4-2.2 0-.1 0-.2-.1-.2a.76.76 0 0 0-.4-.2c-.2.1-.5-.2-.5.2zm7.8 27.2c-.3 0-.8.1-.9-.1-.4-.6-1-.3-1.5-.4h-1.7c-.7-.8-1.6-.4-2.4-.5-.1 0-.2.2-.2.3 0 0 .1.2.2.2.7.1 1.4-.2 2 .5.5 0 1.1-.2 1.4.1.4.3.8.4 1.3.4 1.1.1 2.2-.4 3.2.5h2.4c.1 0 .8 0 1.4-.1.1 0 .2-.3.2-.4s-.1-.4-.2-.4c-.2-.1-.5-.1-.7-.1h-4.5zm-8.4-3.9c-.1 0-.1.1-.2.1-.1.1-.1.2.1.3.3.3.5.6 1 .5s1 0 1.4 0c.7 1.1 2.2-.1 2.9 1h4.5c.3 0 .4-.1.4-.4s-.1-.5-.3-.5h-3.3c-.3.4-.4.4-.9.1-.4-.3-1-.2-1.6-.2-.5-.7-1.2-.3-1.7-.4-.2 0-.5 0-.7-.1-.4-.6-1-.3-1.6-.4zm5.4-23.6c-.1-.3-.4-.5-.6-.7 0 0-.1-.1-.2-.1a.76.76 0 0 0-.2.4c-.1.4.4.5.4.8.2.5-.2 1.2.2 1.6.6.6.3 1.2.3 1.8.1 1 0 2.1 0 3.1v4.1c0 .1.1.2.1.2.1 0 .3-.1.3-.2v-2.4c.9-.8.3-1.9.5-2.9.1-.6-.8-1-.5-1.7.2-.4 0-.9 0-1.4 0-.4-.2-.7-.4-1.1.1-.5.2-1.1.1-1.5z"/><path d="M19.8 277.6c0-.5-.1-1 0-1.4.1-.6-.5-.8-.5-1.2v-2.2c-.6-.5-.5-1.3-.5-2V266c0-.1-.2-.2-.3-.2 0 0-.2.1-.2.2v6.7c0 .6.1 1 .4 1.5.3.4-.2 1.2.4 1.8.4.4.2 1.1.1 1.6 0 .7.9 1 .5 1.7 0 .1.1.2.2.4.1-.1.2-.2.2-.3.1-.6.4-1.3-.3-1.8zm19.4 28.5l-.2.2c-.2.3-.6.2-.8.4s-.2.7-.4.8c-.6.1-.9.5-1.3.9l-2.2 2.2c-.1.1-.1.3-.2.4.2 0 .5.1.7 0 .5-.3.8-1 1.5-1 .1 0 .2-.1.2-.2.1-.3 0-.6.4-.8.5-.2 1-.3 1.4-.6.5-.4.9-.9 1.4-1.3.2-.2.2-.3 0-.5s-.4-.3-.5-.5zm22.8-5.7c-.5 0-.7-.6-1.2-.5s-1 0-1.4 0c-.2 0-.3.3-.5.5-.1.1-.2.1-.2.2.1.1.2.3.3.3.7 0 1.4-.1 1.9.5 1-.3 1.9.6 2.9.5.4-.1.5.3.8.4s.7 0 1.1 0c.1 0 .1-.1.2-.2-.1-.1-.1-.2-.2-.2-.5.1-.8-.5-1.2-.5-.5 0-.7-.7-1.2-.5-.6.1-.8-.6-1.3-.5zm-20.2-18c0-.2-.7-.7-1.1-.8-.1 0-.1 0-.2.1-.2.1-.1.2 0 .3.8 1.3.8 1.3.8 2.5v5c0 .1.1.2.2.2.1-.1.3-.2.3-.2 0-1 .1-1.9 0-2.9 0-.5.3-.6.4-1-.4-.3-.5-.6 0-.8-.6-.7-.3-1.6-.4-2.4zm15.9 10.5c-.2.3-.5.3-.8.3h-3.8c-.1 0-.2.2-.2.4-.1.2 0 .5.3.6.6.1 1.3 0 1.9 0s1.1.1 1.7 0c.5-.1.9-.4 1.4-.6.1-.1 0-.4 0-.6-.2-.4-.4-.3-.5-.1zM36 280.4c-.1-.2-.3-.2-.3-.1l-1.1 2.4c0 .1.2.3.3.3.4 0 .7.1 1.1-.2.6-.5.9-1.2 1.3-1.8.2-.3.2.1.1-.2-.1-.1-.2-.2-.4-.2-.3 0-.7.2-1-.2zm21.1 7c.2.1.6 0 .6-.2 0-.6 0-1.1.5-1.5-.3-.7.3-1.1.5-1.7.1-.7-.1-.9-.7-.9-.9 0-.9.1-.5 1 0 .1.2.3.1.3-.5.3-.4.8-.4 1.3.1.6-.5.8-.5 1.2 0 .3.1.4.4.5zm-26.3-12.2c.1.2.4.3.6.3h1.4c.4 0 .4.4.4.7 0 .2 0 .3.2.2.1 0 .2-.1.2-.2 0-.5.1-1.1.1-1.2v-2.1c0-.1 0-.1-.1-.2 0-.1-.1-.2-.2-.2s-.1.1-.2.2c-.2.4.1.9-.3 1.3-.3.4-.8.3-1.2.6-.1.1-.2.2-.4.3-.1.1-.3.2-.5.3zm-.4 8.5c-.2 0-.3.3-.5.5v.2a.76.76 0 0 0 .4.2c.5.1.7-.7 1.2-.5l1.7-1.7c.1-.1 0-.3 0-.5v-.5c0-.1-.1-.1-.1-.2-.1-.1-.2-.1-.3.1-.1.1 0 .4 0 .5-.8.7-1.3 1.6-2.4 1.9zm39.7-11.4c-.3.3-.7.6-.9 1 .5.3 1.1.2 1.6.1.3-.1.6-.4 1-.5.2 0 .2-.2.1-.3-.5-.6-1.3-.8-1.8-.3zm-49.5-1.7c.1 0 .3 0 .4-.1.2-.1.2-.2 0-.3-.1-.1-.4-.2-.1-.5.5-.4.5-1 .1-1.4-.2-.3-.3-.5-.3-.8 0-.1-.1-.1-.2-.2-.1.1-.2.2-.2.3v2.8c-.1 0 .2.2.3.2zm5.3 32.8c0-.1-.1-.1-.2-.2l-.2.1c0 .5-.1.9-.1 1.4.1.5-.2.9-.6 1.2-.1.1-.3.2-.3.3s.1.2.2.3h.2c.5-.1.8-.4.9-.9.1-.4 0-.8 0-1.4.2 0 .2-.4.1-.8zm3.2-39.5c.3 0 .6 0 .7.4s-.2.6-.4.8c-.1.1-.1.3-.1.4a.76.76 0 0 0 .2.4c.2.1.2-.1.3-.2.2-.3.6-.5.5-.9 0-.5.2-1-.3-1.3-.2-.1-.2-.5-.5-.3-.2.2-.4.4-.6.7 0-.2.1-.1.2 0zm-8.1 2.8l.2-.2c.1-.7-.3-1.4.5-1.9l-.2-.2c-.4-.3-.3-.7-.3-1a.76.76 0 0 0-.2-.4h-.2c-.1 0-.1.1-.1.2v3.3c0 .1.2.1.3.2zM32.2 306v-.2c0-.1-.1-.1-.2-.1h-2.4c-.1 0-.2.2-.2.4 0 .1 0 .3.1.4.1.3.5.2.6.1.5-.6 1.1-.4 1.7-.5.1 0 .2-.1.4-.1zm-8.1 10.2h-.7l-.3.3c-.1.5.3.6.5.9.1.2.2.2.3 0s.3-.3.5-.5c.3-.2.1-.7-.3-.7z"/><path d="M19.9 314.8c-.1.1-.2.3-.1.4.3.6.5 1.3 1 1.7.2.2.2.2.3 0 0-.1.1-.2.1-.2-.3-.7-.5-1.4-1.1-1.9h-.2zm39.4-26c.9 0 1.4-.8 1.1-1.7 0-.1-.1-.1-.2-.2 0 0-.1.1-.2.1-.2.6-.4 1.3-1.3 1.3-.1 0-.1.2-.1.3 0 0 .1.1.2.1.2.2.4.1.5.1zm-29.9-8.1c.1 0 .4-.1.4-.2 0-.4.2-.7.6-1-.3-.2-.5-.4-.7-.6-.1 0-.3.1-.3.1.2.6-.5.7-.5 1.2a.76.76 0 0 0 .2.4c0 .1.2.1.3.1zm13.1-1.5c-.2-.1-.3 0-.2.2v1.2c0 .5.5.6.7.9 0 0 .1 0 .2-.1s.1-.1.1-.2c-.1-.7-.7-1.2-.6-1.9 0 .1-.1 0-.2-.1zm-9 31.7c-.4.3-.7.7-1 1-.2.1-.2.3-.1.3.2.1.5.2.6.1.3-.2.6-.5.8-.8l.2-.2c.1-.1.1-.3.2-.4-.3 0-.6-.1-.7 0zm10.7-17.4v.6c0 .1.1.3.2.5l.3-.3c.1-.2.3-.3.4-.5 0-.1 0-.3-.1-.4s-.3-.1-.4-.2c-.2-.1-.3.1-.4.3zm-5.3-14v-.2c-.1-.6-.5-.9-1.1-1-.1 0-.2.1-.4.3l1.2 1.1c.1 0 .3-.2.3-.2zM70.2 303c.3-.3.6-.5.5-.9 0-.1-.3-.2-.3-.2l-1.2 1.1c.3.3.6.3 1 0zm-47.8-22.3h-.9c-.1 0-.2.1-.2.1 0 .1.1.2.1.3.3.4.3.3 1 0 .1-.1.3 0 .5 0 .1 0 .2-.1.2-.2s-.1-.3-.2-.3c-.2 0-.4.1-.5.1zm8.2 26.9c-.3 0-.6-.1-.9-.1-.4 0-.8.1-1.2.1-.1 0-.1.1-.2.2.1.1.1.2.2.2h2.1c.1 0 .1-.1.2-.2l-.2-.2zm1.8-41.4c.1 0 .3-.1.3-.2v-1.4c0-.1-.1-.2-.1-.2-.1 0-.3.1-.3.2v1.4c-.1.1.1.2.1.2zm-4.5 35.4c0-.1-.1-.2-.2-.2s-.3.1-.3.2v1.4c0 .1.1.2.2.2s.3-.1.3-.2c.1-.1 0-.3 0-.5v-.9zm5.3-25.2c-.1.1-.3.1-.4.2-.6.5-.6.8.1 1.2.1 0 .3-.1.3-.1.1-.1 0-.3 0-.5v-.8zM22.5 261c.1 0 .3 0 .4-.1.2-.1.2-.2.1-.3-.5-.6-.6-.6-1.1 0l-.2.2c.1.1.2.2.4.2h.4zm34.5 2.4s-.1-.1 0 0h0z"/><path d="M57 263.4l-.1.1c-.1 0-.1.1-.1.2-.2.6.7.8.5 1.4l.2.2h.1c-.1-.5-.2-1.1-.4-1.6-.1-.1-.1-.2-.2-.3 0 .1 0 .1 0 0 0 .1 0 0 0 0z"/><path d="M57.4 265.3c.1-.1.1-.1 0 0 .1-.2.2-.3.2-.4.2-.7-.2-1.1-.6-1.4v.1c.2.6.3 1.1.4 1.7z"/></svg>