<svg xmlns="http://www.w3.org/2000/svg" width="30" height="30" fill="white" viewBox="0 0 95.333 95.332" xmlns:v="https://vecta.io/nano"><path d="M30.512 43.94c-2.348-.676-4.696-1.02-6.98-1.02-3.527 0-6.47.806-8.752 1.793 2.2-8.054 7.485-21.95 18.013-23.516a2.5 2.5 0 0 0 2.04-1.799l2.3-8.23a2.5 2.5 0 0 0-2.068-3.15 17.49 17.49 0 0 0-2.354-.16c-12.637 0-25.152 13.2-30.433 32.076-3.1 11.08-4 27.738 3.627 38.223 4.273 5.867 10.507 9 18.53 9.313l.098.002c9.898 0 18.675-6.666 21.345-16.2a22.03 22.03 0 0 0-2.032-16.851c-2.875-5.105-7.6-8.826-13.334-10.473zM92.47 54.413c-2.875-5.106-7.6-8.827-13.334-10.474-2.348-.676-4.696-1.02-6.98-1.02a21.94 21.94 0 0 0-8.753 1.793c2.2-8.054 7.485-21.95 18.014-23.516.975-.145 1.773-.85 2.04-1.8l2.3-8.23a2.5 2.5 0 0 0-.318-2.045c-.396-.604-1.034-1.007-1.75-1.105-.776-.106-1.568-.16-2.354-.16-12.637 0-25.152 13.2-30.434 32.076-3.1 11.08-4.008 27.738 3.63 38.225 4.272 5.866 10.507 9 18.528 9.312h.1c9.897 0 18.675-6.666 21.345-16.2 1.593-5.705.87-11.7-2.034-16.85z"/></svg>