<svg class="bi bi-arrow-down-short" width="50px" height="50px" transform="translate(85,100)" stroke="black" viewBox="0 0 120 120" fill="currentColor" xmlns="http://www.w3.org/2000/svg">
  <path fill-rule="evenodd" d="M6.646 9.646a.5.5 0 01.708 0L10 12.293l2.646-2.647a.5.5 0 01.708.708l-3 3a.5.5 0 01-.708 0l-3-3a.5.5 0 010-.708z" clip-rule="evenodd"/>
  <path fill-rule="evenodd" d="M10 6.5a.5.5 0 01.5.5v5a.5.5 0 01-1 0V7a.5.5 0 01.5-.5z" clip-rule="evenodd"/>
</svg>

<div style="width: 100px; height:100px;">
  <svg viewBox="-10 -10 120 120">
    <path d="M 50,0 L 60,10 L 20,50 L 60,90 L 50,100 L 0,50 Z" class="arrow" transform="translate(85,100) rotate(180)" stroke="black" stroke-width="10"></path>
  </svg>